<?xml version="1.0" encoding="utf-8"?>
<!-- Generator: Adobe Illustrator 27.5.0, SVG Export Plug-In . SVG Version: 6.00 Build 0)  -->
<svg version="1.1" id="Layer_1" xmlns="http://www.w3.org/2000/svg" xmlns:xlink="http://www.w3.org/1999/xlink" x="0px" y="0px"
	 viewBox="0 0 96 96" style="enable-background:new 0 0 96 96;" xml:space="preserve">
<style type="text/css">
	.st0{fill:#CCCCCC;stroke:#F2F2F2;stroke-miterlimit:2.6131;}
	.st1{fill:none;}
	.st2{fill:#AAF7D0;}
</style>
<polygon class="st0" points="83,16.4 53.9,16.4 51.6,18.3 51.6,24.1 53.6,26.1 57.3,26.1 31.1,52 31.1,26.1 33.9,26.1 35.4,23.6 
	35.4,17.9 33.9,15.3 4.2,15.3 1.9,17.8 1.9,23.5 4.2,25 8.4,25 8.4,91.2 10.5,93.1 18.7,93.1 85.1,23.9 85.1,18.3 "/>
<rect x="-452" y="-202" class="st1" width="1000" height="500"/>
<g>
	<path class="st0" d="M61.7,52.2L57,52.3c-2.9-0.1-3.7,0.3-4.4,2.5h-2.1l1.8-7.8c1-4.2,1.4-4.6,5.2-4.6h27c2.6,0,3.6-0.5,4.3-2.4
		h2.3l-1.8,7.9c-0.9,4-1.3,4.4-4.5,4.4h-7.1L70,85.8c-0.3,1.3-0.3,1.6-0.3,2.1c0,1.3,0.8,2.1,2.3,2.3L71.3,92H56.9
		c-2.5,0-3.7-0.8-3.7-2.4c0-0.3,0.1-1,0.2-1.6L61.7,52.2z"/>
</g>
<g>
	<path class="st2" d="M76,30v-8.7h-8.4V11.2H76V3.1h11.3v8.1h8.1v10.2h-8.1V30H76z"/>
</g>
</svg>
