<?xml version="1.0" encoding="utf-8"?>
<!-- Generator: Adobe Illustrator 27.5.0, SVG Export Plug-In . SVG Version: 6.00 Build 0)  -->
<svg version="1.1" id="Layer_1" xmlns="http://www.w3.org/2000/svg" xmlns:xlink="http://www.w3.org/1999/xlink" x="0px" y="0px"
	 viewBox="0 0 1000 500" style="enable-background:new 0 0 1000 500;" xml:space="preserve">
<style type="text/css">
	.st0{fill:#4D4D4D;}
	.st1{fill:#39B54A;}
	.st2{fill:#E6E6E6;stroke:#CCCCCC;stroke-width:20;stroke-miterlimit:2.6131;}
	.st3{fill-rule:evenodd;clip-rule:evenodd;fill:none;}
</style>
<g>
	<g>
		<path class="st0" d="M507.67325,215.82956c0.51196-2.56113,0.68326-3.7563,0.68326-4.95146
			c0-2.73146-1.87842-4.60986-5.12326-4.95099L504.25809,202h29.36624c5.8045,0,8.36517,1.53677,8.36517,5.2926
			c0,1.02484-0.17029,2.56114-0.5119,3.92711l-15.53619,67.77992c-0.51196,2.73193-0.85455,3.92709-0.85455,5.12228
			c0,2.73193,1.87842,4.60934,5.12329,4.95096L529.35559,293h-29.53607c-5.63422,0-8.36615-1.70709-8.36615-5.2926
			c0-1.02484,0.34161-2.56064,0.68323-3.92709L507.67325,215.82956z M544.96466,197h-23.19159
			c-5.88422,0-8.48102-1.55788-8.48102-5.36526c0-1.03844,0.17365-2.59631,0.51892-3.98103L515.88885,179h23.19159
			c5.88422,0,8.48102,1.73103,8.48102,5.36526c0,1.03844-0.17365,2.59631-0.5199,3.98103L544.96466,197z"/>
		<path class="st0" d="M560.42358,215.82956c0.51196-2.56113,0.68323-3.7563,0.68323-4.95146
			c0-2.73146-1.87836-4.60986-5.12225-4.95099L557.0094,202h29.36523c5.80554,0,8.36615,1.53677,8.36615,5.12228
			c0,1.02435-0.17029,2.90227-0.5119,4.09743l-0.85358,4.09743c7.85327-11.09761,9.56036-13.99988,26.97498-13.99988
			c15.53711,0,20.31683,3.58549,20.31683,14.5123c9.21973-13.31714,11.78131-14.5123,27.65912-14.5123
			c14.17072,0,20.31683,3.92662,20.31683,12.4631c0,2.21953-0.34161,4.60985-1.70709,9.73213l-12.63391,55.48714
			c-0.51288,2.73193-0.68323,3.92709-0.68323,5.12228c0,2.73193,1.70709,4.60934,4.95099,4.95096L677.71625,293h-29.53656
			c-5.63422,0-8.36615-1.70709-8.36615-5.2926c0-0.85355,0.34161-2.73193,0.68323-3.92709l11.7804-51.56052
			c0.34161-2.04872,0.5119-2.90276,0.5119-3.7563c0-3.07307-2.04871-4.95099-5.8045-4.95099
			c-5.46295,0-8.5365,3.07307-10.0733,9.90245l-10.41486,45.58469c-0.68225,2.73193-0.85352,3.92709-0.85352,5.12228
			c0,2.73193,1.87836,4.60934,5.12225,4.95096L629.91156,293H600.375c-5.63422,0-8.36615-1.70709-8.36615-5.2926
			c0-0.85355,0.34161-2.73193,0.51196-3.92709l11.4397-49.85341c0.68225-2.56114,0.85358-3.92664,0.85358-5.2926
			c0-3.24388-1.87842-4.95148-5.80457-4.95148c-3.24384,0-5.97583,1.36598-7.51257,3.92711
			c-1.19519,1.70711-1.70709,3.4147-2.90228,8.53648l-9.90295,42.85323c-0.5119,2.73193-0.68225,3.92709-0.68225,5.12228
			c0,2.73193,1.70709,4.60934,4.95099,4.95096L582.10687,293h-29.53656c-5.63416,0-8.19482-1.70709-8.19482-5.2926
			c0-0.85355,0.17029-2.73193,0.5119-3.92709L560.42358,215.82956z"/>
	</g>
</g>
<g>
	<path class="st1" d="M805,345v61h-38v-61h-56v-37h57v-62h37v62h57v37H805z"/>
</g>
<g>
	<g>
		<path class="st0" d="M371.21396,328l-10.58911,0.17606C353.74203,328,351.97696,329.05835,350.0358,334h-4.75198l4.16812-18.23352
			C351.70947,305.86816,352.75137,305,361.60779,305h62.51248c5.46802,0,7.49911-1.09369,9.06171-5h5.50684l-4.24231,17.98792
			C432.41022,327.15164,431.39209,328,424.09537,328h-16.3569l-17.74542,77.52847c-0.68942,2.92868-0.68942,3.79001-0.68942,4.82318
			c0,3.10153,1.72311,4.65231,5.34076,5.34076L393.61069,420h-33.42297c-5.85785,0-8.44229-1.72263-8.44229-5.51361
			c0-0.86133,0.17236-2.23923,0.51709-3.79001L371.21396,328z"/>
		<path class="st0" d="M440.50238,342.82907c0.51242-2.56064,0.68323-3.7558,0.68323-4.95099
			c0-2.73193-1.87842-4.60934-5.12228-4.95096L437.08817,329h29.36575c5.80502,0,8.36566,1.53677,8.36566,5.2926
			c0,1.02484-0.17032,2.56161-0.51193,3.92709l-15.53668,67.77994c-0.51242,2.73193-0.85403,3.92709-0.85403,5.12228
			c0,2.73193,1.87842,4.60934,5.12228,4.95096L462.18567,420h-29.53656c-5.63422,0-8.36615-1.70709-8.36615-5.2926
			c0-1.02484,0.34161-2.56064,0.68323-3.92709L440.50238,342.82907z M477.79556,324h-23.19388
			c-5.88455,0-8.48102-1.55698-8.48102-5.36557c0-1.03799,0.17319-2.59595,0.5195-3.98026L448.71713,306h23.1929
			c5.88553,0,8.48151,1.73062,8.48151,5.36557c0,1.03799-0.1727,2.59595-0.51901,3.98026L477.79556,324z"/>
		<path class="st0" d="M493.22601,342.86469c0.68402-2.56723,0.85574-3.76547,0.85574-4.96371
			c0-2.73898-1.88321-4.62125-5.13547-4.96375L489.80203,329h29.73727c5.80548,0,8.36615,1.53677,8.36615,5.2926
			c0,1.02484-0.17133,2.56161-0.51196,3.92709l-1.02484,4.09744c8.19489-12.97552,11.43878-14.00037,25.78076-14.00037
			c8.5365,0,13.65778,1.19516,17.07294,3.75677c4.43909,3.0726,6.31744,7.34134,6.31744,13.99942
			c0,9.39099-1.70807,19.9762-5.80548,36.02432c-4.43909,17.7562-8.36517,25.95105-14.85394,31.58527
			C549.07587,418.63452,544.29517,420,531.49097,420h-23.00888l-2.07513,8.99258c-0.51852,2.59369-0.69205,3.80426-0.69205,5.01483
			c0,2.76718,1.7301,4.6698,5.18835,5.01483L509.86618,443h-29.47836c-5.81946,0-8.55844-1.54074-8.55844-5.30624
			c0-1.02747,0.3425-2.56723,0.68497-3.93723L493.22601,342.86469z M513.27734,399h4.4541
			c12.16309,0,14.21875-1.54199,17.9873-12.84863c1.88477-5.48145,3.25488-11.13477,4.96777-19.35742
			c1.37109-6.85254,1.54199-9.08008,1.54199-11.82031c0-4.62598-2.39844-6.68164-7.87988-6.68164
			c-6.85254,0-9.93652,2.39844-11.47754,9.0791L513.27734,399z"/>
		<path class="st0" d="M624.76587,350.17255c-4.29919-0.17255-6.36304,1.54813-6.36304,4.98749
			c0,2.5795,0.34412,2.75208,13.41528,8.59937c9.97491,4.30017,12.55444,5.67572,15.13495,7.91113
			c3.26776,2.58047,4.81586,5.84827,4.81586,9.97589c0,9.63177-3.61188,22.70291-7.91205,28.7218
			C638.69781,417.59204,631.98969,420,614.96252,420h-30.39453c-7.75,0-9.81665-1.2056-9.81665-5.85519
			c0-0.86102,0.17279-2.06662,0.68921-4.13321L580.26294,389h3.45258c1.22504,5.77496,3.49951,7,13.47424,7h13.2934
			c3.80627,0,5.19116-0.17261,6.4024-0.86502c1.21124-0.86505,2.24884-2.76871,2.24884-4.49875
			c0-3.1149-0.86499-3.63373-15.74512-10.20874c-13.15002-5.70999-16.26489-8.9975-16.26489-17.30255
			c0-10.38232,3.80634-22.66635,8.47864-28.2037C600.44702,329.21124,604.42694,328,617.23077,328h38.87622l-3.14227,13.61923
			C651.2179,349.12708,650.17078,350,642.48773,350L624.76587,350.17255z"/>
	</g>
</g>
<polygon class="st2" points="503.68146,56 356.32224,56 345,65.82429 345,95.17571 354.70285,105 374.52914,105 240,240.24995 
	240,105 254.76518,105 264,94.58183 264,65.47231 254.76518,55 102.91922,55.12115 93,64.92115 93,94.2 102.91922,104 121,104 
	121,439.26526 132.31854,449 174.26254,449 515,94.81861 515,65.73474 "/>
<rect class="st3" width="1000" height="500"/>
</svg>
