<?xml version="1.0" encoding="utf-8"?>
<!-- Generator: Adobe Illustrator 27.5.0, SVG Export Plug-In . SVG Version: 6.00 Build 0)  -->
<svg version="1.1" id="Layer_1" xmlns="http://www.w3.org/2000/svg" xmlns:xlink="http://www.w3.org/1999/xlink" x="0px" y="0px"
	 viewBox="0 0 96 96" style="enable-background:new 0 0 96 96;" xml:space="preserve">
<style type="text/css">
	.st0{fill:#CCCCCC;stroke:#000000;stroke-width:3;stroke-miterlimit:2.6131;}
	.st1{fill:none;}
	.st2{fill:#DBDBDB;stroke:#000000;stroke-width:2;stroke-miterlimit:2.6131;}
	.st3{fill:#2B8838;stroke:#231F20;stroke-miterlimit:2.6131;}
</style>
<polygon class="st0" points="82,15.5 55.1,15.5 53,17.3 53,22.7 54.8,24.5 58.3,24.5 34,48.5 34,24.5 36.6,24.5 38,22.2 38,16.9 
	36.6,14.5 9.2,14.5 7,16.8 7,22.1 9.2,23.5 13,23.5 13,84.7 15,86.5 22.6,86.5 84,22.5 84,17.3 "/>
<rect x="-452" y="-202" class="st1" width="1000" height="500"/>
<g>
	<path class="st2" d="M65.1,51.4l-4.3,0.1c-2.7-0.1-3.4,0.3-4.1,2.3h-1.9l1.7-7.2c0.9-3.9,1.3-4.3,4.8-4.3h25c2.4,0,3.3-0.5,4-2.2
		h2.1l-1.7,7.3c-0.8,3.7-1.2,4.1-4.2,4.1h-6.6l-7.1,31c-0.3,1.2-0.3,1.5-0.3,1.9c0,1.2,0.7,1.9,2.1,2.1L74,88.2H60.7
		c-2.3,0-3.4-0.7-3.4-2.2c0-0.3,0.1-0.9,0.2-1.5L65.1,51.4z"/>
</g>
<g>
	<path class="st3" d="M77.4,28V16.8H65.7V9.1h11.7V1.2h7.8v7.9h10.1v7.7H85.2V28H77.4z"/>
</g>
</svg>
