<?xml version="1.0" encoding="utf-8"?>
<!-- Generator: Adobe Illustrator 27.5.0, SVG Export Plug-In . SVG Version: 6.00 Build 0)  -->
<svg version="1.1" id="Layer_1" xmlns="http://www.w3.org/2000/svg" xmlns:xlink="http://www.w3.org/1999/xlink" x="0px" y="0px"
	 viewBox="0 0 512 512" style="enable-background:new 0 0 512 512;" xml:space="preserve">
<style type="text/css">
	.st0{clip-path:url(#SVGID_00000078766411665518943210000012152995860783849859_);}
	.st1{clip-path:url(#SVGID_00000170973309734024375890000008049472624186117538_);}
	.st2{fill:#FFFFFF;stroke:#F4F4F4;stroke-width:12;stroke-miterlimit:10;}
	.st3{fill:none;stroke:#00DFBC;stroke-width:39;stroke-miterlimit:10;}
	.st4{fill:none;stroke:#00FFCE;stroke-width:18;stroke-miterlimit:10;}
	
		.st5{clip-path:url(#SVGID_00000170973309734024375890000008049472624186117538_);fill:#FFFFFF;stroke:#F4F4F4;stroke-width:12;stroke-miterlimit:10;}
	.st6{fill:#F4F4F4;}
	.st7{fill:#FFFFFF;}
</style>
<g>
	<defs>
		<rect id="SVGID_1_" width="512" height="512"/>
	</defs>
	<clipPath id="SVGID_00000069358021221987400220000003409568859986234018_">
		<use xlink:href="#SVGID_1_"  style="overflow:visible;"/>
	</clipPath>
	<g style="clip-path:url(#SVGID_00000069358021221987400220000003409568859986234018_);">
		<defs>
			<rect id="SVGID_00000054945819120356985900000005097502685634792111_" x="-18.5" y="-37" width="549" height="549"/>
		</defs>
		<clipPath id="SVGID_00000101090301915790878010000000177492074720944050_">
			<use xlink:href="#SVGID_00000054945819120356985900000005097502685634792111_"  style="overflow:visible;"/>
		</clipPath>
		
			<g id="XMLID_00000134236233557926763000000013711061093859933867_" style="clip-path:url(#SVGID_00000101090301915790878010000000177492074720944050_);">
			<g>
				<path d="M445.3,70c19.1,3.8,31.9,19.2,31,40.2c-0.7,17.5-3.3,35-5.7,52.3c-8.3,57-17.8,114-24.9,171.1
					c-2.1,16.5,2.3,33.8,4.2,50.6c4.5,39.5,10.2,79,8,119c-2.4,42.1-16.1,79.8-43.1,112.7c-8.7,10.6-15.8,22.5-23.2,34.1
					c-1.4,2.3-1.7,5.4-2.6,8.5c2.1,0.7,3.3,1.4,4.5,1.4c14.4,0,18.2,2.4,20.6,16.3c5.2,30,6.9,60.1,4.3,90.4
					c-0.7,8.7-4.8,13.9-12.8,16.5c-44.3,15.1-89.5,23.4-136.8,20.3c-32.2-2.1-63-9.4-93.3-20.1c-8.3-2.9-12.6-8.1-14-16.6
					c-5.2-31.2-4.2-62,4.5-92.5c3.6-13,4.5-13.3,24.2-15.9c1-15.4-0.7-29.4-12.5-41.9c-16.8-17.8-33.3-36.2-47.8-55.8
					c-13.9-18.7-27.2-38.3-36.9-59.2c-19.9-42.8-37.6-86.6-55.1-130.4c-4.8-11.9-7.4-25.6-7.6-38.6c-0.3-28.1,29.4-45.9,54-31.9
					c11.4,6.6,21.5,16.5,30.7,26.2c11.8,12.3,22,26,32.7,39.1c1.4,1.7,1.7,4.2,2.6,6.2c1.2-0.9,2.6-1.9,3.8-2.8
					c-2.3-17.3-4.5-34.5-6.8-51.8c-5.5-42.6-11.3-85.2-16.8-127.8c-3.1-23.4-5.4-47.1-9.4-70.3c-4.5-25.8,14.7-59.2,50.7-58.4
					c0.9,0,1.6-0.3,2.4-0.7c1.6-7.1,2.6-14.2,4.5-21c6.4-21.6,19.6-32.2,39.5-32c18.9,0.2,36.4,13.5,41.6,33.3
					c5.9,23.2,10.6,46.6,15.9,70c7.8,34.8,15.6,69.6,23.4,104.6c0.7,2.8,1.6,5.4,4,8c1-4,2.3-8,3.1-11.9
					c11.3-48.5,22.3-97.2,34.3-145.5c2.8-11.3,7.4-22.5,13.7-32.2c7.8-12.3,20.6-18.4,35.5-18c22.2,0.5,35.8,14.2,38.6,38.6
					c0.5,4.8,0.9,9.7,1.2,14.7C435.1,69,440.3,69,445.3,70z M448.9,108.1c0.5-6.2-3.3-10-9.5-11.6c-6.4-1.4-10.9,0.9-13.5,6.4
					c-1.9,4.2-3.6,8.5-4.7,13c-10.6,44.3-21,88.5-31.5,132.8c-4.5,18.7-8.8,37.6-13.9,56.3c-2.3,8.5-8.5,11.8-15.6,10.2
					c-6.9-1.6-10.9-7.6-10-16.1c0.5-4.8,1.6-9.7,2.6-14.4c15.1-67.7,30.3-135.4,45.2-203.3c1.9-8.7,2.3-17.7,2.1-26.5
					c0-5.5-2.8-11.8-9.4-11.4c-5.5,0.3-12.3,2.1-15.9,5.7c-4.2,4.2-6.1,11.1-7.4,17.1c-17,70.8-33.4,141.8-50.2,212.8
					c-1.2,5.4-2.6,10.7-5.2,15.4c-5.4,9.7-15.8,9.4-21-0.2c-2.3-4.3-3.8-9-4.8-13.9c-14.5-64.6-28.9-129.4-43.3-194
					c-2.9-13-5.7-25.8-9-38.8c-2.4-9.5-8.1-14-16.3-13.7c-7.3,0.3-12.8,5.7-14,15.1c-0.7,5.5-0.7,11.6,0.3,17.1
					c11.9,64.3,24.4,128.5,36.5,192.8c3.8,20.1,8,40.2,11.3,60.3c1.4,8.5-3.1,13.9-10.6,15.2c-8.1,1.6-12.5-2.9-14.9-9.9
					c-0.9-2.1-1.4-4.3-1.9-6.6c-11.1-53.9-22.2-107.7-33.4-161.6c-4.2-19.7-8.7-39.3-14-58.7c-1-3.6-6.2-8-9.9-8.5
					c-10-1.2-18.9,7.6-19.2,17.8c-0.2,4.8,0.2,9.9,0.9,14.7c6.6,48.8,13.5,97.7,19.9,146.5c5,37.8,9.9,75.5,13.9,113.3
					c1.2,11.6,5.9,18,16.5,22.2c20.4,8.1,37.9,20.6,52.6,37.1c18.4,20.8,31.9,43.8,33.6,72.2c0.5,9.7-4.2,16.1-12.1,17
					c-7.6,0.9-12.8-3.6-15.1-13.5c-0.5-2.3-0.5-4.7-1-6.8c-2.3-8.3-3.5-17.1-7.4-24.6c-13.9-25.5-33.4-45.2-60.3-57.5
					c-10.4-4.7-20.6-10.4-30.1-16.8c-21.3-14.4-37.1-34.5-53.3-54c-9.2-11.1-19.2-21.5-30-31c-3.3-2.9-11.1-4-14.9-2.1
					c-2.9,1.6-4.7,9.2-4,13.7c1.9,10.9,4.5,22.2,8.8,32.4c12.1,28.9,25.3,57.5,37.9,86.2c10.9,24.4,18.5,50.6,35.5,71.9
					c18.4,23,36.5,46.2,56.6,67.7c17.5,18.7,23.4,39.8,20.3,64.3c-0.7,5.5,1.2,7.1,6.1,8c44.7,7.4,89.4,10,134.4,2.3
					c2.3-0.3,5.7-4.2,5.9-6.4c0.7-17.3,7.1-32.4,17.5-46.1c11.4-15.2,23-30.5,32.9-46.6c17.1-27.7,18.7-58.9,19.6-90.6
					c-3.5-34.5-6.9-68.8-10.2-103.2c-1.6-15.8-5.2-31.9-3.3-47.3c7.8-61.5,17.5-122.6,26.3-184.1
					C446.7,133.4,448.1,120.8,448.9,108.1z M385.5,761.2c4.7-1.4,6.2-4,6.1-8.8c-0.5-13-0.3-26-0.9-39c-0.3-7.3-1.4-14.7-2.3-22.7
					c-3.6,0.5-6.2,0.9-8.7,1.4c-14.4,2.6-28.9,5.9-43.5,7.6c-46.9,6.1-93.2,0.9-139.1-9.5c-5.9-1.4-8.8-0.3-9,6.1
					c-0.3,18.7-1.2,37.4-1,56.1c0,2.6,3.6,6.6,6.2,7.6C257.6,783.4,321.5,781.3,385.5,761.2z"/>
				<path class="st2" d="M439.6,96.5c6.2,1.4,10,5.2,9.5,11.6c-1,12.6-2.4,25.3-4.2,37.8c-8.8,61.3-18.5,122.6-26.3,184.1
					c-1.9,15.4,1.7,31.5,3.3,47.3c3.3,34.5,6.8,68.9,10.2,103.2c-0.9,31.7-2.4,62.9-19.6,90.6c-10,16.1-21.6,31.3-32.9,46.6
					c-10.4,13.9-16.6,28.7-17.5,46.1c-0.2,2.3-3.5,6.1-5.9,6.4c-44.9,7.8-89.7,5.2-134.4-2.3c-4.8-0.9-6.8-2.4-6.1-8
					c3.1-24.4-2.8-45.4-20.3-64.3c-20.1-21.5-38.3-44.7-56.6-67.7c-17-21.3-24.6-47.5-35.5-71.9c-12.8-28.7-25.8-57.2-37.9-86.2
					c-4.3-10.2-6.9-21.5-8.8-32.4c-0.7-4.3,1-12.1,4-13.7c3.8-1.9,11.6-0.9,14.9,2.1c10.7,9.5,20.8,19.9,30,31
					c16.3,19.6,32,39.7,53.3,54c9.5,6.4,19.7,11.9,30.1,16.8c26.8,12.3,46.4,31.9,60.3,57.5c4,7.4,5.2,16.3,7.4,24.6
					c0.7,2.3,0.5,4.5,1,6.8c2.3,9.7,7.3,14.4,15.1,13.5c7.8-0.9,12.6-7.3,12.1-17c-1.6-28.6-15.2-51.6-33.6-72.2
					c-14.5-16.5-32.2-29.1-52.6-37.1c-10.6-4.2-15.2-10.6-16.5-22.2c-4-37.8-8.8-75.5-13.9-113.3c-6.4-48.8-13.3-97.7-19.9-146.5
					c-0.7-4.8-1-9.9-0.9-14.7c0.3-10.2,9.2-19.1,19.2-17.8c3.8,0.5,9,4.8,9.9,8.5c5.4,19.4,9.9,39,14,58.7
					C202,210.3,213,264.2,224.1,318c0.5,2.3,1,4.5,1.9,6.6c2.6,6.9,6.8,11.4,14.9,9.9c7.4-1.4,11.9-6.8,10.6-15.2
					c-3.3-20.3-7.4-40.2-11.3-60.3c-12.1-64.3-24.6-128.5-36.5-192.8c-1-5.5-1-11.6-0.3-17.1c1.2-9.4,6.9-14.7,14-15.1
					c8.1-0.3,14,4.2,16.3,13.7c3.3,12.8,6.1,25.8,9,38.8c14.4,64.6,28.7,129.4,43.3,194c1,4.7,2.6,9.5,4.8,13.9
					c5.2,9.7,15.6,9.9,21,0.2c2.6-4.7,4-10.2,5.2-15.4c16.8-70.8,33.4-141.8,50.2-212.8c1.4-6.1,3.5-13,7.4-17.1
					c3.6-3.6,10.4-5.4,15.9-5.7c6.6-0.3,9.4,5.9,9.4,11.4c0.2,8.8-0.3,17.8-2.1,26.5c-14.9,67.9-30.1,135.6-45.2,203.3
					c-1,4.8-2.1,9.5-2.6,14.4c-0.9,8.3,3.1,14.5,10,16.1c7.1,1.6,13.3-1.7,15.6-10.2c5-18.7,9.4-37.4,13.9-56.3
					c10.6-44.3,21-88.7,31.5-132.8c1-4.5,2.8-8.8,4.7-13C428.7,97.6,433.2,95.1,439.6,96.5z"/>
				<path class="st2" d="M391.8,752.4c0.2,4.8-1.6,7.3-6.1,8.8c-64.1,20.1-128,22.2-191.9-1c-2.8-1-6.2-5-6.2-7.6
					c-0.2-18.7,0.7-37.4,1-56.1c0.2-6.4,2.9-7.4,9-6.1c45.9,10.4,92.1,15.6,139.1,9.5c14.5-1.9,28.9-5,43.5-7.6
					c2.4-0.3,5-0.9,8.7-1.4c0.9,8,1.9,15.4,2.3,22.7C391.4,726.4,391.3,739.4,391.8,752.4z"/>
			</g>
			<g>
				<path class="st3" d="M153.6,368.9c-2.3-17.3-4.5-34.5-6.8-51.8c-5.5-42.6-11.3-85.2-16.8-127.8c-3.1-23.4-5.4-47.1-9.4-70.3
					c-4.5-25.8,14.7-59.2,50.7-58.4c0.9,0,1.6-0.3,2.4-0.7c1.6-7.1,2.6-14.2,4.5-21c6.4-21.6,19.6-32.2,39.5-32
					c18.9,0.2,36.4,13.5,41.6,33.3c5.9,23.2,10.6,46.6,15.9,70c7.8,34.8,15.6,69.6,23.4,104.6c0.7,2.8,1.6,5.4,4,8
					c1-4,2.3-8,3.1-11.9c11.3-48.5,22.3-97.2,34.3-145.5c2.8-11.3,7.4-22.5,13.7-32.2c7.8-12.3,20.6-18.4,35.5-18
					c22.2,0.5,35.8,14.2,38.6,38.6c0.5,4.8,0.9,9.7,1.2,14.7c5.9,0.5,11.1,0.3,15.9,1.4c19.1,3.8,31.9,19.2,31,40.2
					c-0.7,17.5-3.3,35-5.7,52.3c-8.3,57-17.8,114-24.9,171.1c-2.1,16.5,2.3,33.8,4.2,50.6c4.5,39.5,10.2,79,8,119
					c-2.4,42.1-16.1,79.8-43.1,112.7c-8.7,10.6-15.8,22.5-23.2,34.1c-1.4,2.3-1.7,5.4-2.6,8.5c2.1,0.7,3.3,1.4,4.5,1.4
					c14.4,0,18.2,2.4,20.6,16.3c5.2,30,6.9,60.1,4.3,90.4c-0.7,8.7-4.8,13.9-12.8,16.5c-44.3,15.1-89.5,23.4-136.8,20.3
					c-32.2-2.1-63-9.4-93.3-20.1c-8.3-2.9-12.6-8.1-14-16.6c-5.2-31.2-4.2-62,4.5-92.5c3.6-13,4.5-13.3,24.2-15.9
					c1-15.4-0.7-29.4-12.5-41.9c-16.8-17.8-33.3-36.2-47.8-55.8c-13.9-18.7-27.2-38.3-36.9-59.2c-19.9-42.8-37.6-86.6-55.1-130.4
					c-4.8-11.9-7.4-25.6-7.6-38.6c-0.3-28.1,29.4-45.9,54-31.9c11.4,6.6,21.5,16.5,30.7,26.2c11.8,12.3,22,26,32.7,39.1
					c1.4,1.7,1.7,4.2,2.6,6.2C151,370.7,152.4,369.8,153.6,368.9z"/>
				<path class="st3" d="M432,480.5c-3.5-34.5-6.9-68.8-10.2-103.2c-1.6-15.8-5.2-31.9-3.3-47.3c7.8-61.5,17.5-122.6,26.3-184.1
					c1.7-12.5,3.1-25.1,4.2-37.8c0.5-6.2-3.3-10-9.5-11.6c-6.4-1.4-10.9,0.9-13.5,6.4c-1.9,4.2-3.6,8.5-4.7,13
					c-10.6,44.3-21,88.5-31.5,132.8c-4.5,18.7-8.8,37.6-13.9,56.3c-2.3,8.5-8.5,11.8-15.6,10.2c-6.9-1.6-10.9-7.6-10-16.1
					c0.5-4.8,1.6-9.7,2.6-14.4c15.1-67.7,30.3-135.4,45.2-203.3c1.9-8.7,2.3-17.7,2.1-26.5c0-5.5-2.8-11.8-9.4-11.4
					c-5.5,0.3-12.3,2.1-15.9,5.7c-4.2,4.2-6.1,11.1-7.4,17.1c-17,70.8-33.4,141.8-50.2,212.8c-1.2,5.4-2.6,10.7-5.2,15.4
					c-5.4,9.7-15.8,9.4-21-0.2c-2.3-4.3-3.8-9-4.8-13.9c-14.5-64.6-28.9-129.4-43.3-194c-2.9-13-5.7-25.8-9-38.8
					c-2.4-9.5-8.1-14-16.3-13.7c-7.3,0.3-12.8,5.7-14,15.1c-0.7,5.5-0.7,11.6,0.3,17.1c11.9,64.3,24.4,128.5,36.5,192.8
					c3.8,20.1,8,40.2,11.3,60.3c1.4,8.5-3.1,13.9-10.6,15.2c-8.1,1.6-12.5-2.9-14.9-9.9c-0.9-2.1-1.4-4.3-1.9-6.6
					c-11.1-53.9-22.2-107.7-33.4-161.6c-4.2-19.7-8.7-39.3-14-58.7c-1-3.6-6.2-8-9.9-8.5c-10-1.2-18.9,7.6-19.2,17.8
					c-0.2,4.8,0.2,9.9,0.9,14.7c6.6,48.8,13.5,97.7,19.9,146.5c5,37.8,9.9,75.5,13.9,113.3c1.2,11.6,5.9,18,16.5,22.2
					c20.4,8.1,37.9,20.6,52.6,37.1c18.4,20.8,31.9,43.8,33.6,72.2c0.5,9.7-4.2,16.1-12.1,17c-7.6,0.9-12.8-3.6-15.1-13.5
					c-0.5-2.3-0.5-4.7-1-6.8c-2.3-8.3-3.5-17.1-7.4-24.6c-13.9-25.5-33.4-45.2-60.3-57.5c-10.4-4.7-20.6-10.4-30.1-16.8
					c-21.3-14.4-37.1-34.5-53.3-54c-9.2-11.1-19.2-21.5-30-31c-3.3-2.9-11.1-4-14.9-2.1c-2.9,1.6-4.7,9.2-4,13.7
					c1.9,10.9,4.5,22.2,8.8,32.4c12.1,28.9,25.3,57.5,37.9,86.2c10.9,24.4,18.5,50.6,35.5,71.9c18.4,23,36.5,46.2,56.6,67.7
					c17.5,18.7,23.4,39.8,20.3,64.3c-0.7,5.5,1.2,7.1,6.1,8c44.7,7.4,89.4,10,134.4,2.3c2.3-0.3,5.7-4.2,5.9-6.4
					c0.7-17.3,7.1-32.4,17.5-46.1c11.4-15.2,23-30.5,32.9-46.6C429.5,543.3,431.1,512.2,432,480.5z"/>
				<path class="st3" d="M388.7,690.7c-3.6,0.5-6.2,0.9-8.7,1.4c-14.4,2.6-28.9,5.9-43.5,7.6c-46.9,6.1-93.2,0.9-139.1-9.5
					c-5.9-1.4-8.8-0.3-9,6.1c-0.3,18.7-1.2,37.4-1,56.1c0,2.6,3.6,6.6,6.2,7.6c63.7,23.4,127.8,21.3,191.9,1c4.7-1.4,6.2-4,6.1-8.8
					c-0.5-13-0.3-26-0.9-39C390.6,706.1,389.5,698.7,388.7,690.7z"/>
			</g>
		</g>
		
			<g id="XMLID_00000129191893368608473650000009051939094113530550_" style="clip-path:url(#SVGID_00000101090301915790878010000000177492074720944050_);">
			<g>
				<path d="M444.8,70c19.1,3.8,31.9,19.2,31,40.2c-0.7,17.5-3.3,35-5.7,52.3c-8.3,57-17.8,114-24.9,171.1
					c-2.1,16.5,2.3,33.8,4.2,50.6c4.5,39.5,10.2,79,8,119c-2.4,42.1-16.1,79.8-43.1,112.7c-8.7,10.6-15.8,22.5-23.2,34.1
					c-1.6,2.3-1.7,5.4-2.6,8.5c2.1,0.7,3.3,1.4,4.5,1.4c14.4,0,18.2,2.4,20.6,16.3c5.2,30,6.9,60.1,4.3,90.4
					c-0.7,8.7-4.8,13.9-12.8,16.5c-44.3,15.1-89.5,23.4-136.8,20.3c-32.2-2.1-63.2-9.4-93.5-20.1c-8.3-2.9-12.6-8.1-14-16.6
					c-5.2-31.2-4.2-62,4.5-92.5c3.6-13,4.5-13.3,24.2-15.9c1-15.4-0.7-29.4-12.3-41.9c-16.8-17.8-33.3-36.2-47.8-55.8
					c-13.9-18.7-27.2-38.3-36.9-59.2c-19.9-42.8-37.6-86.6-55.1-130.4c-4.8-12.1-7.4-25.6-7.6-38.6c-0.3-28.1,29.4-45.9,53.9-31.9
					c11.4,6.6,21.5,16.5,30.7,26.2c11.8,12.3,22,26,32.7,39.1c1.4,1.7,1.7,4.2,2.6,6.2c1.2-0.9,2.6-1.9,3.8-2.8
					c-2.3-17.3-4.5-34.5-6.8-51.8c-5.5-42.6-11.3-85.2-16.8-127.8c-3.1-23.4-5.4-46.9-9.4-70.3c-4.5-25.8,14.7-59.2,50.7-58.4
					c0.9,0,1.6-0.3,2.4-0.7c1.6-7.1,2.6-14.2,4.5-21c6.4-21.6,19.7-32.2,39.5-32c18.9,0.2,36.4,13.5,41.6,33.3
					c5.9,23.2,10.6,46.6,15.8,70c7.8,34.8,15.6,69.6,23.4,104.6c0.7,2.8,1.6,5.4,4,8c1-4,2.3-8,3.1-11.9
					c11.4-48.5,22.3-97.2,34.3-145.5c2.8-11.3,7.6-22.5,13.7-32.2c7.8-12.3,20.6-18.4,35.5-18c22.3,0.5,35.8,14.2,38.6,38.6
					c0.5,4.8,0.9,9.7,1.2,14.7C434.6,69,439.8,69,444.8,70z M448.6,108.1c0.5-6.2-3.3-10-9.5-11.6c-6.4-1.4-10.9,0.9-13.5,6.4
					c-1.9,4.2-3.6,8.5-4.7,13c-10.6,44.3-21,88.5-31.5,132.8c-4.5,18.7-8.8,37.6-13.9,56.3c-2.3,8.5-8.7,11.8-15.6,10.2
					c-6.8-1.6-10.9-7.6-10-16.1c0.5-4.8,1.6-9.7,2.6-14.4c15.1-67.7,30.3-135.4,45.2-203.3c1.9-8.7,2.3-17.7,2.1-26.5
					c0-5.5-2.8-11.8-9.4-11.4c-5.5,0.3-12.3,2.1-15.9,5.7c-4.2,4.2-6.1,11.1-7.4,17.1c-17,70.8-33.4,141.8-50.2,212.8
					c-1.2,5.4-2.6,10.7-5.4,15.4c-5.4,9.7-15.8,9.4-21-0.2c-2.3-4.3-3.8-9-4.8-13.9c-14.5-64.6-28.9-129.4-43.3-194
					c-2.9-13-5.7-25.8-9-38.8c-2.4-9.5-8.1-14-16.3-13.7c-7.3,0.3-12.8,5.7-14,15.1c-0.7,5.5-0.7,11.6,0.3,17.1
					c11.9,64.3,24.4,128.5,36.5,192.8c3.8,20.1,8,40.2,11.3,60.3c1.4,8.5-3.1,13.9-10.6,15.2c-8.1,1.6-12.5-2.9-15.1-9.9
					c-0.9-2.1-1.4-4.3-1.9-6.6c-11.1-53.9-22.2-107.7-33.4-161.6c-4.2-19.7-8.7-39.3-14-58.7c-1-3.6-6.2-8-9.9-8.5
					c-10-1.2-18.9,7.6-19.2,17.8c-0.2,4.8,0.2,9.9,0.9,14.7c6.6,48.8,13.5,97.7,19.9,146.5c5,37.8,9.9,75.5,13.9,113.3
					c1.2,11.6,5.9,18,16.5,22.2c20.4,8.1,37.9,20.6,52.5,37.1c18.4,20.8,31.9,43.8,33.6,72.2c0.5,9.7-4.2,16.1-12.1,17
					c-7.6,0.9-12.8-3.6-15.1-13.5c-0.5-2.3-0.5-4.7-1-6.8c-2.4-8.3-3.5-17.1-7.4-24.6c-13.9-25.5-33.4-45.2-60.3-57.5
					c-10.4-4.7-20.6-10.4-30.1-16.8c-21.3-14.4-37.1-34.5-53.3-54c-9.2-11.1-19.2-21.5-30-31c-3.3-2.9-11.1-4-14.9-2.1
					c-2.9,1.6-4.7,9.2-4,13.7c1.9,11.1,4.5,22.2,8.8,32.4c12.1,28.9,25.3,57.5,37.9,86.2c10.9,24.4,18.5,50.6,35.5,71.9
					c18.4,23,36.5,46.2,56.6,67.7c17.5,18.7,23.4,39.8,20.3,64.3c-0.7,5.5,1.2,7.1,6.1,8c44.7,7.4,89.4,10,134.4,2.3
					c2.3-0.3,5.7-4.2,5.9-6.4c0.7-17.3,7.1-32.4,17.5-46.1c11.4-15.2,23-30.5,32.9-46.6c17.1-27.7,18.7-58.9,19.6-90.6
					c-3.5-34.5-6.9-68.8-10.2-103.2c-1.6-15.8-5.2-31.9-3.3-47.3c7.8-61.5,17.5-122.8,26.3-184.1
					C446.2,133.4,447.5,120.8,448.6,108.1z M385.2,761.2c4.7-1.4,6.2-4,6.1-8.8c-0.5-13-0.3-26-0.9-39c-0.3-7.3-1.4-14.7-2.3-22.7
					c-3.6,0.5-6.2,0.9-8.7,1.4c-14.5,2.6-28.9,5.9-43.5,7.6c-46.9,6.1-93.2,0.9-139.1-9.5c-5.9-1.4-8.8-0.3-9,6.1
					c-0.3,18.7-1.2,37.4-1,56.1c0,2.6,3.5,6.6,6.2,7.6C257,783.4,321.1,781.3,385.2,761.2z"/>
				<path class="st2" d="M439.1,96.5c6.2,1.4,10,5.2,9.5,11.6c-1,12.6-2.4,25.3-4.2,37.8c-8.8,61.3-18.5,122.6-26.3,184.1
					c-1.9,15.4,1.7,31.5,3.3,47.3c3.3,34.5,6.8,68.9,10.2,103.2c-0.9,31.7-2.4,62.9-19.6,90.6c-10,16.1-21.6,31.3-32.9,46.6
					c-10.4,13.9-16.6,28.7-17.5,46.1c-0.2,2.3-3.5,6.1-5.9,6.4c-44.9,7.8-89.7,5.2-134.4-2.3c-4.8-0.9-6.8-2.4-6.1-8
					c3.1-24.4-2.8-45.4-20.3-64.3c-20.1-21.5-38.3-44.7-56.6-67.7c-17-21.3-24.6-47.5-35.5-71.9c-12.8-28.7-25.8-57.2-37.9-86.2
					c-4.3-10.2-6.9-21.5-8.8-32.4c-0.7-4.3,1-12.1,4-13.7c3.8-1.9,11.6-0.9,14.9,2.1c10.7,9.5,20.8,19.9,30,31
					c16.3,19.6,32,39.7,53.3,54c9.5,6.4,19.7,11.9,30.1,16.8c26.8,12.3,46.4,31.9,60.3,57.5c4,7.4,5.2,16.3,7.4,24.6
					c0.7,2.3,0.5,4.5,1,6.8c2.3,9.7,7.3,14.4,15.1,13.5c7.8-0.9,12.6-7.3,12.1-17c-1.6-28.6-15.2-51.6-33.6-72.2
					c-14.5-16.5-32.2-29.1-52.5-37.1c-10.7-4.2-15.2-10.6-16.5-22.2c-4-37.8-8.8-75.5-13.9-113.3c-6.4-48.8-13.3-97.7-19.9-146.5
					c-0.7-4.8-1-9.9-0.9-14.7c0.3-10.2,9.2-19.1,19.2-17.8c3.6,0.5,9,4.8,9.9,8.5c5.4,19.4,9.9,39,14,58.7
					c11.3,53.9,22.3,107.7,33.4,161.6c0.5,2.3,1,4.5,1.9,6.6c2.6,6.9,6.8,11.4,15.1,9.9c7.4-1.4,11.9-6.8,10.6-15.2
					c-3.3-20.3-7.4-40.2-11.3-60.3c-12.6-64.3-24.9-128.5-36.9-192.8c-1-5.5-1-11.6-0.3-17.1c1.2-9.4,6.9-14.7,14-15.1
					c8.1-0.3,14,4.2,16.3,13.7c3.3,12.8,6.1,25.8,9,38.8c14.4,64.6,28.7,129.4,43.3,194c1,4.7,2.6,9.5,4.8,13.9
					c5.2,9.7,15.6,9.9,21,0.2c2.6-4.7,4-10.2,5.4-15.4c16.8-70.8,33.4-141.8,50.2-212.8c1.4-6.1,3.5-13,7.4-17.1
					c3.6-3.6,10.4-5.4,15.9-5.7c6.6-0.3,9.4,5.9,9.4,11.4c0.2,8.8-0.3,17.8-2.1,26.5c-14.9,67.9-30.1,135.6-45.2,203.3
					c-1,4.8-2.1,9.5-2.6,14.4c-0.9,8.3,3.1,14.5,10,16.1c7.1,1.6,13.3-1.7,15.6-10.2c5-18.7,9.4-37.4,13.9-56.3
					c10.6-44.3,21-88.7,31.5-132.8c1-4.5,2.8-8.8,4.7-13C428.3,97.6,432.8,95.1,439.1,96.5z"/>
				<path class="st2" d="M391.3,752.4c0.2,4.8-1.6,7.3-6.1,8.8c-64.1,20.1-128,22.2-191.9-1c-2.8-1-6.2-5-6.2-7.6
					c-0.2-18.7,0.7-37.4,1-56.1c0.2-6.4,2.9-7.4,9-6.1c45.9,10.4,92.1,15.6,139.1,9.5c14.5-1.9,28.9-5,43.5-7.6
					c2.4-0.3,5-0.9,8.7-1.4c0.9,8,1.9,15.4,2.3,22.7C390.9,726.4,390.7,739.4,391.3,752.4z"/>
			</g>
			<g>
				<path class="st4" d="M153.3,368.9c-2.3-17.3-4.5-34.5-6.8-51.8c-5.5-42.6-11.3-85.2-16.8-127.8c-3.1-23.4-5.4-46.9-9.4-70.3
					c-4.5-25.8,14.7-59.2,50.7-58.4c0.9,0,1.6-0.3,2.4-0.7c1.6-7.1,2.6-14.2,4.5-21c6.4-21.6,19.7-32.2,39.5-32
					c18.9,0.2,36.4,13.5,41.6,33.3c5.9,23.2,10.6,46.6,15.8,70c7.8,34.8,15.6,69.6,23.4,104.6c0.7,2.8,1.6,5.4,4,8
					c1-4,2.3-8,3.1-11.9c11.4-48.5,22.3-97.2,34.3-145.5c2.8-11.3,7.6-22.5,13.7-32.2c7.8-12.3,20.6-18.4,35.5-18
					c22.3,0.5,35.8,14.2,38.6,38.6c0.5,4.8,0.9,9.7,1.2,14.7c5.9,0.5,11.1,0.3,15.9,1.4c19.1,3.8,31.9,19.2,31,40.2
					c-0.7,17.5-3.3,35-5.7,52.3c-8.3,57-17.8,114-24.9,171.1c-2.1,16.5,2.3,33.8,4.2,50.6c4.5,39.5,10.2,79,8,119
					c-2.4,42.1-16.1,79.8-43.1,112.7c-8.7,10.6-15.8,22.5-23.2,34.1c-1.6,2.3-1.7,5.4-2.6,8.5c2.1,0.7,3.3,1.4,4.5,1.4
					c14.4,0,18.2,2.4,20.6,16.3c5.2,30,6.9,60.1,4.3,90.4c-0.7,8.7-4.8,13.9-12.8,16.5c-44.3,15.1-89.5,23.4-136.8,20.3
					c-32.2-2.1-63.2-9.4-93.5-20.1c-8.3-2.9-12.6-8.1-14-16.6c-5.2-31.2-4.2-62,4.5-92.5c3.6-13,4.5-13.3,24.2-15.9
					c1-15.4-0.7-29.4-12.3-41.9c-16.8-17.8-33.3-36.2-47.8-55.8c-13.9-18.7-27.2-38.3-36.9-59.2c-19.9-42.8-37.6-86.6-55.1-130.4
					c-4.8-12.1-7.4-25.6-7.6-38.6c-0.3-28.1,29.4-45.9,53.9-31.9c11.4,6.6,21.5,16.5,30.7,26.2c11.8,12.3,22,26,32.7,39.1
					c1.4,1.7,1.7,4.2,2.6,6.2C150.7,370.7,151.9,369.8,153.3,368.9z"/>
				<path class="st4" d="M431.6,480.5c-3.5-34.5-6.9-68.8-10.2-103.2c-1.6-15.8-5.2-31.9-3.3-47.3c7.8-61.5,17.5-122.8,26.3-184.1
					c1.7-12.5,3.1-25.1,4.2-37.8c0.5-6.2-3.3-10-9.5-11.6c-6.4-1.4-10.9,0.9-13.5,6.4c-1.9,4.2-3.6,8.5-4.7,13
					c-10.6,44.3-21,88.5-31.5,132.8c-4.5,18.7-8.8,37.6-13.9,56.3c-2.3,8.5-8.7,11.8-15.6,10.2c-6.8-1.6-10.9-7.6-10-16.1
					c0.5-4.8,1.6-9.7,2.6-14.4c15.1-67.7,30.3-135.4,45.2-203.3c1.9-8.7,2.3-17.7,2.1-26.5c0-5.5-2.8-11.8-9.4-11.4
					c-5.5,0.3-12.3,2.1-15.9,5.7c-4.2,4.2-6.1,11.1-7.4,17.1c-17,70.8-33.4,141.8-50.2,212.8c-1.2,5.4-2.6,10.7-5.4,15.4
					c-5.4,9.7-15.8,9.4-21-0.2c-2.3-4.3-3.8-9-4.8-13.9c-14.5-64.6-28.9-129.4-43.3-194c-2.9-13-5.7-25.8-9-38.8
					c-2.4-9.5-8.1-14-16.3-13.7c-7.3,0.3-12.8,5.7-14,15.1c-0.7,5.5-0.7,11.6,0.3,17.1c11.9,64.3,24.4,128.5,36.5,192.8
					c3.8,20.1,8,40.2,11.3,60.3c1.4,8.5-3.1,13.9-10.6,15.2c-8.1,1.6-12.5-2.9-15.1-9.9c-0.9-2.1-1.4-4.3-1.9-6.6
					c-11.1-53.9-22.2-107.7-33.4-161.6c-4.2-19.7-8.7-39.3-14-58.7c-1-3.6-6.2-8-9.9-8.5c-10-1.2-18.9,7.6-19.2,17.8
					c-0.2,4.8,0.2,9.9,0.9,14.7c6.6,48.8,13.5,97.7,19.9,146.5c5,37.8,9.9,75.5,13.9,113.3c1.2,11.6,5.9,18,16.5,22.2
					c20.4,8.1,37.9,20.6,52.5,37.1c18.4,20.8,31.9,43.8,33.6,72.2c0.5,9.7-4.2,16.1-12.1,17c-7.6,0.9-12.8-3.6-15.1-13.5
					c-0.5-2.3-0.5-4.7-1-6.8c-2.4-8.3-3.5-17.1-7.4-24.6c-13.9-25.5-33.4-45.2-60.3-57.5c-10.4-4.7-20.6-10.4-30.1-16.8
					c-21.3-14.4-37.1-34.5-53.3-54c-9.2-11.1-19.2-21.5-30-31c-3.3-2.9-11.1-4-14.9-2.1c-2.9,1.6-4.7,9.2-4,13.7
					c1.9,11.1,4.5,22.2,8.8,32.4c12.1,28.9,25.3,57.5,37.9,86.2c10.9,24.4,18.5,50.6,35.5,71.9c18.4,23,36.5,46.2,56.6,67.7
					c17.5,18.7,23.4,39.8,20.3,64.3c-0.7,5.5,1.2,7.1,6.1,8c44.7,7.4,89.4,10,134.4,2.3c2.3-0.3,5.7-4.2,5.9-6.4
					c0.7-17.3,7.1-32.4,17.5-46.1c11.4-15.2,23-30.5,32.9-46.6C429.2,543.3,430.7,512.2,431.6,480.5z"/>
				<path class="st4" d="M388.3,690.7c-3.6,0.5-6.2,0.9-8.7,1.4c-14.5,2.6-28.9,5.9-43.5,7.6c-46.9,6.1-93.2,0.9-139.1-9.5
					c-5.9-1.4-8.8-0.3-9,6.1c-0.3,18.7-1.2,37.4-1,56.1c0,2.6,3.5,6.6,6.2,7.6c63.7,23.4,127.8,21.3,191.9,1c4.7-1.4,6.2-4,6.1-8.8
					c-0.5-13-0.3-26-0.9-39C390.2,706.1,389,698.7,388.3,690.7z"/>
			</g>
		</g>
		<path style="clip-path:url(#SVGID_00000101090301915790878010000000177492074720944050_);" d="M448.9,109.9
			c0.5-6.2-3.3-10-9.5-11.6c-6.4-1.4-10.9,0.9-13.5,6.4c-1.9,4.2-3.6,8.5-4.7,13c-10.6,44.3-21,88.5-31.5,132.8
			c-4.5,18.7-8.8,37.6-13.9,56.3c-2.3,8.5-8.5,11.8-15.6,10.2c-6.9-1.6-10.9-7.6-10-16.1c0.5-4.8,1.6-9.7,2.6-14.4
			c15.1-67.7,30.3-135.4,45.2-203.3c1.9-8.7,2.3-17.7,2.1-26.5c0-5.5-2.8-11.8-9.4-11.4c-5.5,0.3-12.3,2.1-15.9,5.7
			c-4.2,4.2-6.1,11.1-7.4,17.1C350.4,139,333.9,210,317.1,281c-1.2,5.4-2.6,10.7-5.2,15.4c-5.4,9.5-15.8,9.4-21-0.2
			c-2.3-4.2-3.8-9-4.8-13.9c-14.5-64.6-28.9-129.4-43.3-194c-2.9-13-5.7-25.8-9-38.8c-2.4-9.5-8.1-14-16.3-13.7
			c-7.3,0.3-12.8,5.7-14,15.1c-0.7,5.5-0.7,11.6,0.3,17.1c11.9,64.3,24.4,128.5,36.5,192.8c3.8,20.1,8,40.2,11.3,60.3
			c1.4,8.5-3.1,13.9-10.6,15.2c-8.1,1.6-12.5-2.9-14.9-9.9c-0.9-2.1-1.4-4.3-1.9-6.6c-11.1-53.9-22.2-107.7-33.4-161.6
			c-4.2-19.7-8.7-39.3-14-58.7c-1-3.6-6.2-8-9.9-8.5c-10-1.2-18.9,7.6-19.2,17.8c-0.2,4.8,0.2,9.9,0.9,14.7
			c6.6,48.8,13.5,97.7,19.9,146.5c5,37.8,9.9,75.5,13.9,113.3c1.2,11.6,5.9,18,16.5,22.2c20.4,8,54,7.6,68.8,24.1
			c18.4,20.8,15.8,56.8,17.5,85.2c0.5,9.9-4.2,16.1-12.1,17.1c-7.6,0.9-12.8-3.6-15.1-13.5c-0.5-2.3-0.5-4.7-1-6.8
			c-2.3-8.3-3.5-17.1-7.4-24.6c-13.9-25.5-33.4-45.2-60.3-57.5c-10.4-4.7-20.6-10.4-30.1-16.8c-21.3-14.4-37.1-34.5-53.3-54
			c-9.2-11.1-19.2-21.5-30-31c-3.3-2.9-11.1-4-14.9-2.1c-2.9,1.6-4.7,9.2-4,13.7c1.9,10.9,4.5,22.2,8.8,32.4
			c12.1,28.9,25.3,57.5,37.9,86.2c10.9,24.4,18.5,50.6,35.5,71.9c18.4,23,36.5,46.2,56.6,67.7c17.5,18.7,23.4,39.8,20.3,64.3
			c-0.7,5.5,1.2,7.1,6.1,8c44.7,7.4,89.4,10,134.4,2.3c2.3-0.3,5.7-4.2,5.9-6.4c0.7-17.3,7.1-32.4,17.5-46.1
			c11.4-15.2,23-30.5,32.9-46.6c17.1-27.7,18.7-58.9,19.6-90.6l0,0c-3.5-34.5-6.9-68.8-10.2-103.2c-1.6-15.8-5.2-31.9-3.3-47.3
			c7.8-61.5,17.5-122.6,26.3-184.1C446.7,135,448.1,122.3,448.9,109.9z M385.5,762.8c4.7-1.4,6.2-4,6.1-8.8c-0.5-13-0.3-26-0.9-39
			c-0.3-7.3-1.4-14.7-2.3-22.7l0,0c-3.6,0.5-6.2,0.9-8.7,1.4c-14.4,2.6-28.9,5.9-43.5,7.6c-46.9,6.1-93.2,0.9-139.1-9.5
			c-5.9-1.4-8.8-0.3-9,6.1c-0.3,18.7-1.2,37.4-1,56.1c0,2.6,3.6,6.6,6.2,7.6C257.6,785.1,321.5,783,385.5,762.8z"/>
		<path style="clip-path:url(#SVGID_00000101090301915790878010000000177492074720944050_);" d="M476.3,111.8
			c-0.7,17.5-3.3,35-5.7,52.3c-8.3,57-17.8,114-24.9,171.1c-2.1,16.5,2.3,33.8,4.2,50.6c4.5,39.5,10.2,79,8,119
			c-2.4,42.1-16.1,79.8-43.1,112.7c-8.7,10.6-15.8,22.5-23.2,34.1c-1.4,2.3-1.7,5.4-2.6,8.5l0,0c2.1,0.5,3.3,1.4,4.5,1.4
			c14.4,0,18.2,2.4,20.6,16.3c5.2,30,6.9,60.1,4.3,90.4c-0.7,8.5-4.8,13.9-12.8,16.5c-44.3,15.1-89.5,23.4-136.8,20.3
			c-32.2-2.1-63-9.4-93.3-20.1c-8.3-2.9-12.6-8.1-14-16.6c-5.2-31.2-4.2-62,4.5-92.5c3.6-13,4.5-13.3,24.2-15.9l0,0
			c1-15.6-0.7-29.4-12.5-41.9c-16.8-17.8-33.3-36.2-47.8-55.8c-13.9-18.7-27.2-38.3-36.9-59.2C72.9,460,55.3,416.2,37.8,372.4
			c-4.8-11.9-7.4-25.6-7.6-38.6c-0.3-28.1,29.4-45.9,54-31.9c11.4,6.6,21.5,16.5,30.7,26.2c11.8,12.3,22,26,32.7,39.1
			c0.5,0.5,0.5,1.4,1,2.1c1.6,1.6,3.3,2.6,5.2,1.4c0,0,0.2-0.2,0.2-0.3c-2.3-17.3-4.5-33.9-6.8-51.3c-5.5-42.6-11.3-85.2-16.8-127.8
			c-3.1-23.4-5.4-47.1-9.4-70.3c-4.5-25.8,14.7-59.2,50.7-58.4c0.9,0,1.6-0.3,2.4-0.7l0,0c1.6-7.1,2.6-14.2,4.5-21
			c6.4-21.6,19.6-32.2,39.5-32c18.9,0.2,36.4,13.5,41.6,33.3c5.9,23.2,10.6,46.6,15.9,70c7.8,34.8,15.6,69.6,23.4,104.6
			c0.7,2.8,1.6,5.4,4,8l0,0c1-4,2.3-8,3.1-11.9c11.3-48.5,22.3-97.2,34.3-145.5C343.3,56,348,44.7,354.2,35
			c7.8-12.3,20.6-18.4,35.5-18c22.2,0.5,35.8,14.2,38.6,38.6c0.5,4.8,0.9,9.7,1.2,14.7l0,0c5.5,0.5,10.7,0.3,15.8,1.4
			C464.3,75.4,477.2,90.8,476.3,111.8z"/>
		<path style="clip-path:url(#SVGID_00000101090301915790878010000000177492074720944050_);" d="M476.1,111.9
			c-0.7,17.5-3.3,35-5.7,52.3c-8.3,57-17.8,114-24.9,171.1c-2.1,16.5,2.3,33.8,4.2,50.6c4.5,39.5,10.2,79,8,119
			c-2.4,42.1-16.1,79.8-43.1,112.7c-8.7,10.6-15.8,22.5-23.2,34.1c-1.4,2.3-1.7,5.4-2.6,8.5l0,0c2.1,0.5,3.3,1.4,4.5,1.4
			c14.4,0,18.2,2.4,20.6,16.3c5.2,30,6.9,60.1,4.3,90.4c-0.7,8.5-4.8,13.9-12.8,16.5c-44.3,15.1-89.5,23.4-136.8,20.3
			c-32.2-2.1-63-9.4-93.3-20.1c-8.3-2.9-12.6-8.1-14-16.6c-5.2-31.2-4.2-62,4.5-92.5c3.6-13,4.5-13.3,24.2-15.9l0,0
			c1-15.6-0.7-29.4-12.5-41.9c-16.8-17.8-33.3-36.2-47.8-55.8c-13.9-18.7-27.2-38.3-36.9-59.2c-19.9-42.8-37.6-86.6-55.1-130.4
			C32.8,360.6,30.2,347,30,334c-0.3-28.1,29.4-45.9,54-31.9c11.4,6.6,21.5,16.5,30.7,26.2c11.8,12.3,22,26,32.7,39.1
			c0.5,0.5,0.5,1.4,1,2.1c1.6,1.6,3.3,2.6,5.2,1.4c0,0,0.2-0.2,0.2-0.3c-2.3-17.3-4.5-33.9-6.8-51.3c-5.5-42.6-11.3-85.2-16.8-127.8
			c-3.1-23.4-5.4-47.1-9.4-70.3c-4.5-25.8,14.7-59.2,50.7-58.4c0.9,0,1.6-0.3,2.4-0.7l0,0c1.6-7.1,2.6-14.2,4.5-21
			c6.4-21.6,19.6-32.2,39.5-32c18.9,0.2,36.4,13.5,41.6,33.3c5.9,23.2,10.6,46.6,15.9,70c7.8,34.8,15.6,69.6,23.4,104.6
			c0.7,2.8,1.6,5.4,4,8l0,0c1-4,2.3-8,3.1-11.9c11.3-48.5,22.3-97.2,34.3-145.5c2.8-11.3,7.4-22.5,13.7-32.2
			c7.8-12.3,20.6-18.4,35.5-18c22.2,0.5,35.8,14.2,38.6,38.6c0.5,4.8,0.9,9.7,1.2,14.7l0,0c5.5,0.5,10.7,0.3,15.8,1.4
			C464.2,75.6,477,91,476.1,111.9z"/>
		
			<path style="clip-path:url(#SVGID_00000101090301915790878010000000177492074720944050_);fill:#FFFFFF;stroke:#F4F4F4;stroke-width:12;stroke-miterlimit:10;" d="
			M439.6,98.3c6.2,1.4,10,5.2,9.5,11.6c-1,12.6-2.4,25.3-4.2,37.8c-8.8,61.3-18.5,122.6-26.3,184.1c-1.9,15.4,1.7,31.5,3.3,47.3
			c3.3,34.5,6.8,68.9,10.2,103.2c-0.9,31.7-2.4,62.9-19.6,90.6c-10,16.1-21.6,31.3-32.9,46.6c-10.4,13.9-16.6,28.7-17.5,46.1
			c-0.2,2.3-3.5,6.1-5.9,6.4c-44.9,7.8-89.7,5.2-134.4-2.3c-4.8-0.9-6.8-2.4-6.1-8c3.1-24.4-2.8-45.4-20.3-64.3
			c-20.1-21.5-38.3-44.7-56.6-67.7c-17-21.3-24.6-47.5-35.5-71.9c-12.8-28.7-25.8-57.2-37.9-86.2c-4.3-10.2-6.9-21.5-8.8-32.4
			c-0.7-4.3,1-12.1,4-13.7c3.8-1.9,11.6-0.9,14.9,2.1c10.7,9.5,20.8,19.9,30,31c16.3,19.6,32,39.7,53.3,54
			c9.5,6.4,19.7,12.1,30.1,16.8c26.8,12.3,46.4,32,60.3,57.5c4,7.4,5.2,16.3,7.4,24.6c0.7,2.3,0.5,4.5,1,6.8
			c2.3,9.7,7.3,14.4,15.1,13.5c7.8-0.9,12.6-7.3,12.1-17.1c-1.6-28.4-15.2-51.6-33.6-72.2c-14.5-16.5-32.2-29.1-52.6-37.1
			c-10.6-4.2-15.2-10.6-16.5-22.2c-4-37.9-8.8-75.5-13.9-113.3C162,221,155,172.2,148.5,123.4c-0.7-4.8-1-9.9-0.9-14.7
			c0.3-10.2,9.2-19.1,19.2-17.8c3.8,0.5,9,4.8,9.9,8.5c5.4,19.4,9.9,39,14,58.7c11.3,53.9,22.3,107.7,33.4,161.6
			c0.5,2.3,1,4.5,1.9,6.6c2.6,6.9,6.8,11.4,14.9,9.9c7.4-1.4,11.9-6.8,10.6-15.2c-3.3-20.1-7.4-40.2-11.3-60.3
			c-12.1-64.3-24.6-128.5-36.5-192.8c-1-5.5-1-11.6-0.3-17.1c1.2-9.4,6.9-14.7,14-15.1c8.1-0.3,14,4.2,16.3,13.7
			c3.3,12.8,6.1,25.8,9,38.8c14.4,64.6,28.7,129.4,43.3,194c1,4.7,2.6,9.5,4.8,13.9c5.2,9.7,15.6,9.9,21,0.2
			c2.6-4.7,4-10.2,5.2-15.4c16.8-70.8,33.4-141.8,50.2-212.8c1.4-6.1,3.5-13,7.4-17.1c3.6-3.6,10.4-5.4,15.9-5.7
			c6.6-0.3,9.4,5.9,9.4,11.4c0.2,8.8-0.3,17.8-2.1,26.5c-14.9,67.9-30.1,135.6-45.2,203.3c-1,4.8-2.1,9.5-2.6,14.4
			c-0.9,8.3,3.1,14.4,10,16.1c7.1,1.6,13.3-1.7,15.6-10.2c5-18.7,9.4-37.4,13.9-56.3c10.6-44.3,21-88.7,31.5-132.8
			c1-4.5,2.8-8.8,4.7-13C428.7,99.1,433.2,96.9,439.6,98.3z"/>
		
			<path style="clip-path:url(#SVGID_00000101090301915790878010000000177492074720944050_);fill:#FFFFFF;stroke:#F4F4F4;stroke-width:12;stroke-miterlimit:10;" d="
			M391.8,754.1c0.2,4.8-1.6,7.3-6.1,8.8c-64.1,20.1-128,22.2-191.9-1c-2.8-1-6.2-5-6.2-7.6c-0.2-18.7,0.7-37.4,1-56.1
			c0.2-6.4,2.9-7.4,9-6.1c45.9,10.4,92.1,15.6,139.1,9.5c14.5-1.9,28.9-5,43.5-7.6c2.4-0.3,5-0.9,8.7-1.4c0.9,8,1.9,15.4,2.3,22.7
			C391.4,728.1,391.3,741.1,391.8,754.1z"/>
		
			<path style="clip-path:url(#SVGID_00000101090301915790878010000000177492074720944050_);fill:#FFFFFF;stroke:#F4F4F4;stroke-width:12;stroke-miterlimit:10;" d="
			M439.4,96.5c6.2,1.4,10,5.2,9.5,11.6c-1,12.6-2.4,25.3-4.2,37.8c-8.8,61.3-18.5,122.6-26.3,184.1c-1.9,15.4,1.7,31.5,3.3,47.3
			c3.3,34.5,6.8,68.9,10.2,103.2c-0.9,31.7-2.4,62.9-19.6,90.6c-10,16.1-21.6,31.3-32.9,46.6c-10.4,13.9-16.6,28.7-17.5,46.1
			c-0.2,2.3-3.5,6.1-5.9,6.4c-44.9,7.8-89.7,5.2-134.4-2.3c-4.8-0.9-6.8-2.4-6.1-8c3.1-24.4-2.8-45.4-20.3-64.3
			c-20.1-21.5-38.3-44.7-56.6-67.7c-17-21.3-24.6-47.5-35.5-71.9c-12.8-28.7-25.8-57.2-37.9-86.2c-4.3-10.2-6.9-21.5-8.8-32.4
			c-0.7-4.3,1-12.1,4-13.7c3.8-1.9,11.6-0.9,14.9,2.1c10.7,9.5,20.8,19.9,30,31c16.3,19.6,32,39.7,53.3,54
			c9.5,6.4,19.7,11.9,30.1,16.8c26.8,12.3,46.4,31.9,60.3,57.5c4,7.4,5.2,16.3,7.4,24.6c0.7,2.3,0.5,4.5,1,6.8
			c2.3,9.7,7.3,14.4,15.1,13.5c7.8-0.9,12.6-7.3,12.1-17c-1.6-28.6-15.2-51.6-33.6-72.2c-14.5-16.5-32.2-29.1-52.6-37.1
			c-10.6-4.2-15.2-10.6-16.5-22.2c-4-37.8-8.8-75.5-13.9-113.3c-6.4-48.8-13.3-97.7-19.9-146.5c-0.7-4.8-1-9.9-0.9-14.7
			c0.3-10.2,9.2-19.1,19.2-17.8c3.8,0.5,9,4.8,9.9,8.5c5.4,19.4,9.9,39,14,58.7c11.3,53.9,22.3,107.7,33.4,161.6
			c0.5,2.3,1,4.5,1.9,6.6c2.6,6.9,6.8,11.4,14.9,9.9c7.4-1.4,11.9-6.8,10.6-15.2c-3.3-20.3-7.4-40.2-11.3-60.3
			c-12.1-64.3-24.6-128.5-36.5-192.8c-1-5.5-1-11.6-0.3-17.1c1.2-9.4,6.9-14.7,14-15.1c8.1-0.3,14,4.2,16.3,13.7
			c3.3,12.8,6.1,25.8,9,38.8c14.4,64.6,28.7,129.4,43.3,194c1,4.7,2.6,9.5,4.8,13.9c5.2,9.7,15.6,9.9,21,0.2
			c2.6-4.7,4-10.2,5.2-15.4c16.8-70.8,33.4-141.8,50.2-212.8c1.4-6.1,3.5-13,7.4-17.1c3.6-3.6,10.4-5.4,15.9-5.7
			c6.6-0.3,9.4,5.9,9.4,11.4c0.2,8.8-0.3,17.8-2.1,26.5c-14.9,67.9-30.1,135.6-45.2,203.3c-1,4.8-2.1,9.5-2.6,14.4
			c-0.9,8.3,3.1,14.5,10,16.1c7.1,1.6,13.3-1.7,15.6-10.2c5-18.7,9.4-37.4,13.9-56.3c10.6-44.3,21-88.7,31.5-132.8
			c1-4.5,2.8-8.8,4.7-13C428.5,97.6,433,95.1,439.4,96.5z"/>
		
			<path style="clip-path:url(#SVGID_00000101090301915790878010000000177492074720944050_);fill:#FFFFFF;stroke:#F4F4F4;stroke-width:12;stroke-miterlimit:10;" d="
			M391.6,752.4c0.2,4.8-1.6,7.3-6.1,8.8c-64.1,20.1-128,22.2-191.9-1c-2.8-1-6.2-5-6.2-7.6c-0.2-18.7,0.7-37.4,1-56.1
			c0.2-6.4,2.9-7.4,9-6.1c45.9,10.4,92.1,15.6,139.1,9.5c14.5-1.9,28.9-5,43.5-7.6c2.4-0.3,5-0.9,8.7-1.4c0.9,8,1.9,15.4,2.3,22.7
			C391.3,726.4,391.1,739.4,391.6,752.4z"/>
		
			<path style="clip-path:url(#SVGID_00000101090301915790878010000000177492074720944050_);fill:#FFFFFF;stroke:#F4F4F4;stroke-width:12;stroke-miterlimit:10;" d="
			M438.9,96.5c6.2,1.4,10,5.2,9.5,11.6c-1,12.6-2.4,25.3-4.2,37.8c-8.8,61.3-18.5,122.6-26.3,184.1c-1.9,15.4,1.7,31.5,3.3,47.3
			c3.3,34.5,6.8,68.9,10.2,103.2c-0.9,31.7-2.4,62.9-19.6,90.6c-10,16.1-21.6,31.3-32.9,46.6c-10.4,13.9-16.6,28.7-17.5,46.1
			c-0.2,2.3-3.5,6.1-5.9,6.4c-44.9,7.8-89.7,5.2-134.4-2.3c-4.8-0.9-6.8-2.4-6.1-8c3.1-24.4-2.8-45.4-20.3-64.3
			c-20.1-21.5-38.3-44.7-56.6-67.7c-17-21.3-24.6-47.5-35.5-71.9c-12.8-28.7-25.8-57.2-37.9-86.2c-4.3-10.2-6.9-21.5-8.8-32.4
			c-0.7-4.3,1-12.1,4-13.7c3.8-1.9,11.6-0.9,14.9,2.1c10.7,9.5,20.8,19.9,30,31c16.3,19.6,32,39.7,53.3,54
			c9.5,6.4,19.7,11.9,30.1,16.8c26.8,12.3,46.4,31.9,60.3,57.5c4,7.4,5.2,16.3,7.4,24.6c0.7,2.3,0.5,4.5,1,6.8
			c2.3,9.7,7.3,14.4,15.1,13.5c7.8-0.9,12.6-7.3,12.1-17c-1.6-28.6-15.2-51.6-33.6-72.2c-14.5-16.5-32.2-29.1-52.5-37.1
			c-10.7-4.2-15.2-10.6-16.5-22.2c-4-37.8-8.8-75.5-13.9-113.3c-6.4-48.8-13.3-97.7-19.9-146.5c-0.7-4.8-1-9.9-0.9-14.7
			c0.3-10.2,9.2-19.1,19.2-17.8c3.6,0.5,9,4.8,9.9,8.5c5.4,19.4,9.9,39,14,58.7c11.3,53.9,22.3,107.7,33.4,161.6
			c0.5,2.3,1,4.5,1.9,6.6c2.6,6.9,6.8,11.4,15.1,9.9c7.4-1.4,11.9-6.8,10.6-15.2c-3.3-20.3-7.4-40.2-11.3-60.3
			C227.3,194.7,215,130.5,203,66.2c-1-5.5-1-11.6-0.3-17.1c1.2-9.4,6.9-14.7,14-15.1c8.1-0.3,14,4.2,16.3,13.7
			c3.3,12.8,6.1,25.8,9,38.8c14.4,64.6,28.7,129.4,43.3,194c1,4.7,2.6,9.5,4.8,13.9c5.2,9.7,15.6,9.9,21,0.2
			c2.6-4.7,4-10.2,5.4-15.4c16.8-70.8,33.4-141.8,50.2-212.8c1.4-6.1,3.5-13,7.4-17.1c3.6-3.6,10.4-5.4,15.9-5.7
			c6.6-0.3,9.4,5.9,9.4,11.4c0.2,8.8-0.3,17.8-2.1,26.5c-14.9,67.9-30.1,135.6-45.2,203.3c-1,4.8-2.1,9.5-2.6,14.4
			c-0.9,8.3,3.1,14.5,10,16.1c7.1,1.6,13.3-1.7,15.6-10.2c5-18.7,9.4-37.4,13.9-56.3c10.6-44.3,21-88.7,31.5-132.8
			c1-4.5,2.8-8.8,4.7-13C428.1,97.6,432.6,95.1,438.9,96.5z"/>
		
			<path style="clip-path:url(#SVGID_00000101090301915790878010000000177492074720944050_);fill:#FFFFFF;stroke:#F4F4F4;stroke-width:12;stroke-miterlimit:10;" d="
			M391.1,752.4c0.2,4.8-1.6,7.3-6.1,8.8c-64.1,20.1-128,22.2-191.9-1c-2.8-1-6.2-5-6.2-7.6c-0.2-18.7,0.7-37.4,1-56.1
			c0.2-6.4,2.9-7.4,9-6.1c45.9,10.4,92.1,15.6,139.1,9.5c14.5-1.9,28.9-5,43.5-7.6c2.4-0.3,5-0.9,8.7-1.4c0.9,8,1.9,15.4,2.3,22.7
			C390.7,726.4,390.6,739.4,391.1,752.4z"/>
		
			<path style="clip-path:url(#SVGID_00000101090301915790878010000000177492074720944050_);fill:#FFFFFF;stroke:#F4F4F4;stroke-width:12;stroke-miterlimit:10;" d="
			M439.4,98.3c6.2,1.4,10,5.2,9.5,11.6c-1,12.6-2.4,25.3-4.2,37.8c-8.8,61.3-18.5,122.6-26.3,184.1c-1.9,15.4,1.7,31.5,3.3,47.3
			c3.3,34.5,6.8,68.9,10.2,103.2c-0.9,31.7-2.4,62.9-19.6,90.6c-10,16.1-21.6,31.3-32.9,46.6c-10.4,13.9-16.6,28.7-17.5,46.1
			c-0.2,2.3-3.5,6.1-5.9,6.4c-44.9,7.8-89.7,5.2-134.4-2.3c-4.8-0.9-6.8-2.4-6.1-8c3.1-24.4-2.8-45.4-20.3-64.3
			c-20.1-21.5-38.3-44.7-56.6-67.7c-17-21.3-24.6-47.5-35.5-71.9c-12.8-28.7-25.8-57.2-37.9-86.2c-4.3-10.2-6.9-21.5-8.8-32.4
			c-0.7-4.3,1-12.1,4-13.7c3.8-1.9,11.6-0.9,14.9,2.1c10.7,9.5,20.8,19.9,30,31c16.3,19.6,32,39.7,53.3,54
			c9.5,6.4,19.7,12.1,30.1,16.8c26.8,12.3,46.4,32,60.3,57.5c4,7.4,5.2,16.3,7.4,24.6c0.7,2.3,0.5,4.5,1,6.8
			c2.3,9.7,7.3,14.4,15.1,13.5c7.8-0.9,12.6-7.3,12.1-17.1c-1.6-28.4-15.2-51.6-33.6-72.2c-14.5-16.5-32.2-29.1-52.6-37.1
			c-10.6-4.2-15.2-10.6-16.5-22.2c-4-37.9-8.8-75.5-13.9-113.3c-6.4-48.8-13.3-97.7-19.9-146.5c-0.7-4.8-1-9.9-0.9-14.7
			c0.3-10.2,9.2-19.1,19.2-17.8c3.8,0.5,9,4.8,9.9,8.5c5.4,19.4,9.9,39,14,58.7c11.3,53.9,22.3,107.7,33.4,161.6
			c0.5,2.3,1,4.5,1.9,6.6c2.6,6.9,6.8,11.4,14.9,9.9c7.4-1.4,11.9-6.8,10.6-15.2c-3.3-20.1-7.4-40.2-11.3-60.3
			c-12.1-64.3-24.6-128.5-36.5-192.8c-1-5.5-1-11.6-0.3-17.1c1.2-9.4,6.9-14.7,14-15.1c8.1-0.3,14,4.2,16.3,13.7
			c3.3,12.8,6.1,25.8,9,38.8c14.4,64.6,28.7,129.4,43.3,194c1,4.7,2.6,9.5,4.8,13.9c5.2,9.7,15.6,9.9,21,0.2
			c2.6-4.7,4-10.2,5.2-15.4c16.8-70.8,33.4-141.8,50.2-212.8c1.4-6.1,3.5-13,7.4-17.1c3.6-3.6,10.4-5.4,15.9-5.7
			c6.6-0.3,9.4,5.9,9.4,11.4c0.2,8.8-0.3,17.8-2.1,26.5c-14.9,67.9-30.1,135.6-45.2,203.3c-1,4.8-2.1,9.5-2.6,14.4
			c-0.9,8.3,3.1,14.4,10,16.1c7.1,1.6,13.3-1.7,15.6-10.2c5-18.7,9.4-37.4,13.9-56.3c10.6-44.3,21-88.7,31.5-132.8
			c1-4.5,2.8-8.8,4.7-13C428.5,99.1,433,96.9,439.4,98.3z"/>
		
			<path style="clip-path:url(#SVGID_00000101090301915790878010000000177492074720944050_);fill:#FFFFFF;stroke:#F4F4F4;stroke-width:12;stroke-miterlimit:10;" d="
			M391.6,754.1c0.2,4.8-1.6,7.3-6.1,8.8c-64.1,20.1-128,22.2-191.9-1c-2.8-1-6.2-5-6.2-7.6c-0.2-18.7,0.7-37.4,1-56.1
			c0.2-6.4,2.9-7.4,9-6.1c45.9,10.4,92.1,15.6,139.1,9.5c14.5-1.9,28.9-5,43.5-7.6c2.4-0.3,5-0.9,8.7-1.4c0.9,8,1.9,15.4,2.3,22.7
			C391.3,728.1,391.1,741.1,391.6,754.1z"/>
		
			<path style="clip-path:url(#SVGID_00000101090301915790878010000000177492074720944050_);fill:#FFFFFF;stroke:#F4F4F4;stroke-width:12;stroke-miterlimit:10;" d="
			M439.2,96.7c6.2,1.4,10,5.2,9.5,11.6c-1,12.6-2.4,25.3-4.2,37.8c-8.8,61.3-18.5,122.6-26.3,184.1c-1.9,15.4,1.7,31.5,3.3,47.3
			c3.3,34.5,6.8,68.9,10.2,103.2c-0.9,31.7-2.4,62.9-19.6,90.6c-10,16.1-21.6,31.3-32.9,46.6c-10.4,13.9-16.6,28.7-17.5,46.1
			c-0.2,2.3-3.5,6.1-5.9,6.4c-44.9,7.8-89.7,5.2-134.4-2.3c-4.8-0.9-6.8-2.4-6.1-8c3.1-24.4-2.8-45.4-20.3-64.3
			c-20.1-21.5-38.3-44.7-56.6-67.7c-17-21.3-24.6-47.5-35.5-71.9c-12.8-28.7-25.8-57.2-37.9-86.2c-4.3-10.2-6.9-21.5-8.8-32.4
			c-0.7-4.3,1-12.1,4-13.7c3.8-1.9,11.6-0.9,14.9,2.1c10.7,9.5,20.8,19.9,30,31c16.3,19.6,32,39.7,53.3,54
			c9.5,6.4,19.7,11.9,30.1,16.8c26.8,12.3,46.4,31.9,60.3,57.5c4,7.4,5.2,16.3,7.4,24.6c0.7,2.3,0.5,4.5,1,6.8
			c2.3,9.7,7.3,14.4,15.1,13.5c7.8-0.9,12.6-7.3,12.1-17c-1.6-28.6-15.2-51.6-33.6-72.2c-14.5-16.5-32.2-29.1-52.6-37.1
			c-10.6-4.2-15.2-10.6-16.5-22.2c-4-37.8-8.8-75.5-13.9-113.3c-6.4-48.8-13.3-97.7-19.9-146.5c-0.7-4.8-1-9.9-0.9-14.7
			c0.3-10.2,9.2-19.1,19.2-17.8c3.8,0.5,9,4.8,9.9,8.5c5.4,19.4,9.9,39,14,58.7c11.3,53.9,22.3,107.7,33.4,161.6
			c0.5,2.3,1,4.5,1.9,6.6c2.6,6.9,6.8,11.4,14.9,9.9c7.4-1.4,11.9-6.8,10.6-15.2c-3.3-20.3-7.4-40.2-11.3-60.3
			c-12.1-64.3-24.6-128.5-36.5-192.8c-1-5.5-1-11.6-0.3-17.1c1.2-9.4,6.9-14.7,14-15.1c8.1-0.3,14,4.2,16.3,13.7
			c3.3,12.8,6.1,25.8,9,38.8c14.4,64.6,28.7,129.4,43.3,194c1,4.7,2.6,9.5,4.8,13.9c5.2,9.7,15.6,9.9,21,0.2
			c2.6-4.7,4-10.2,5.2-15.4c16.8-70.8,33.4-141.8,50.2-212.8c1.4-6.1,3.5-13,7.4-17.1c3.6-3.6,10.4-5.4,15.9-5.7
			c6.6-0.3,9.4,5.9,9.4,11.4c0.2,8.8-0.3,17.8-2.1,26.5c-14.9,67.9-30.1,135.6-45.2,203.3c-1,4.8-2.1,9.5-2.6,14.4
			c-0.9,8.3,3.1,14.5,10,16.1c7.1,1.6,13.3-1.7,15.6-10.2c5-18.7,9.4-37.4,13.9-56.3c10.6-44.3,21-88.7,31.5-132.8
			c1-4.5,2.8-8.8,4.7-13C428.3,97.7,432.8,95.3,439.2,96.7z"/>
		
			<path style="clip-path:url(#SVGID_00000101090301915790878010000000177492074720944050_);fill:#FFFFFF;stroke:#F4F4F4;stroke-width:12;stroke-miterlimit:10;" d="
			M391.4,752.6c0.2,4.8-1.6,7.3-6.1,8.8c-64.1,20.1-128,22.2-191.9-1c-2.8-1-6.2-5-6.2-7.6c-0.2-18.7,0.7-37.4,1-56.1
			c0.2-6.4,2.9-7.4,9-6.1c45.9,10.4,92.1,15.6,139.1,9.5c14.5-1.9,28.9-5,43.5-7.6c2.4-0.3,5-0.9,8.7-1.4c0.9,8,1.9,15.4,2.3,22.7
			C391.1,726.6,390.9,739.6,391.4,752.6z"/>
		
			<path style="clip-path:url(#SVGID_00000101090301915790878010000000177492074720944050_);fill:#FFFFFF;stroke:#F4F4F4;stroke-width:12;stroke-miterlimit:10;" d="
			M438.7,96.7c6.2,1.4,10,5.2,9.5,11.6c-1,12.6-2.4,25.3-4.2,37.8c-8.8,61.3-18.5,122.6-26.3,184.1c-1.9,15.4,1.7,31.5,3.3,47.3
			c3.3,34.5,6.8,68.9,10.2,103.2c-0.9,31.7-2.4,62.9-19.6,90.6c-10,16.1-21.6,31.3-32.9,46.6c-10.4,13.9-16.6,28.7-17.5,46.1
			c-0.2,2.3-3.5,6.1-5.9,6.4c-44.9,7.8-89.7,5.2-134.4-2.3c-4.8-0.9-6.8-2.4-6.1-8c3.1-24.4-2.8-45.4-20.3-64.3
			c-20.1-21.5-38.3-44.7-56.6-67.7c-17-21.3-24.6-47.5-35.5-71.9c-12.8-28.7-25.8-57.2-37.9-86.2c-4.3-10.2-6.9-21.5-8.8-32.4
			c-0.7-4.3,1-12.1,4-13.7c3.8-1.9,11.6-0.9,14.9,2.1c10.7,9.5,20.8,19.9,30,31c16.3,19.6,32,39.7,53.3,54
			c9.5,6.4,19.7,11.9,30.1,16.8c26.8,12.3,46.4,31.9,60.3,57.5c4,7.4,5.2,16.3,7.4,24.6c0.7,2.3,0.5,4.5,1,6.8
			c2.3,9.7,7.3,14.4,15.1,13.5c7.8-0.9,12.6-7.3,12.1-17c-1.6-28.6-15.2-51.6-33.6-72.2c-14.5-16.5-32.2-29.1-52.5-37.1
			c-10.7-4.2-15.2-10.6-16.5-22.2c-4-37.8-8.8-75.5-13.9-113.3c-6.4-48.8-13.3-97.7-19.9-146.5c-0.7-4.8-1-9.9-0.9-14.7
			c0.3-10.2,9.2-19.1,19.2-17.8c3.6,0.5,9,4.8,9.9,8.5c5.4,19.4,9.9,39,14,58.7c11.3,53.9,22.3,107.7,33.4,161.6
			c0.5,2.3,1,4.5,1.9,6.6c2.6,6.9,6.8,11.4,15.1,9.9c7.4-1.4,11.9-6.8,10.6-15.2c-3.3-20.3-7.4-40.2-11.3-60.3
			c-12.6-64.3-24.9-128.5-36.9-192.8c-1-5.5-1-11.6-0.3-17.1c1.2-9.4,6.9-14.7,14-15.1c8.1-0.3,14,4.2,16.3,13.7
			c3.3,12.8,6.1,25.8,9,38.8c14.4,64.6,28.7,129.4,43.3,194c1,4.7,2.6,9.5,4.8,13.9c5.2,9.7,15.6,9.9,21,0.2
			c2.6-4.7,4-10.2,5.4-15.4c16.8-70.8,33.4-141.8,50.2-212.8c1.4-6.1,3.5-13,7.4-17.1c3.6-3.6,10.4-5.4,15.9-5.7
			c6.6-0.3,9.4,5.9,9.4,11.4c0.2,8.8-0.3,17.8-2.1,26.5c-14.9,67.9-30.1,135.6-45.2,203.3c-1,4.8-2.1,9.5-2.6,14.4
			c-0.9,8.3,3.1,14.5,10,16.1c7.1,1.6,13.3-1.7,15.6-10.2c5-18.7,9.4-37.4,13.9-56.3c10.6-44.3,21-88.7,31.5-132.8
			c1-4.5,2.8-8.8,4.7-13C428,97.7,432.5,95.3,438.7,96.7z"/>
		
			<path style="clip-path:url(#SVGID_00000101090301915790878010000000177492074720944050_);fill:#FFFFFF;stroke:#F4F4F4;stroke-width:12;stroke-miterlimit:10;" d="
			M390.9,752.6c0.2,4.8-1.6,7.3-6.1,8.8c-64.1,20.1-128,22.2-191.9-1c-2.8-1-6.2-5-6.2-7.6c-0.2-18.7,0.7-37.4,1-56.1
			c0.2-6.4,2.9-7.4,9-6.1c45.9,10.4,92.1,15.6,139.1,9.5c14.5-1.9,28.9-5,43.5-7.6c2.4-0.3,5-0.9,8.7-1.4c0.9,8,1.9,15.4,2.3,22.7
			C390.6,726.6,390.4,739.6,390.9,752.6z"/>
		
			<path style="clip-path:url(#SVGID_00000101090301915790878010000000177492074720944050_);fill:#FFFFFF;stroke:#F4F4F4;stroke-width:12;stroke-miterlimit:10;" d="
			M439.2,98.4c6.2,1.4,10,5.2,9.5,11.6c-1,12.6-2.4,25.3-4.2,37.8c-8.8,61.3-18.5,122.6-26.3,184.1c-1.9,15.4,1.7,31.5,3.3,47.3
			c3.3,34.5,6.8,68.9,10.2,103.2c-0.9,31.7-2.4,62.9-19.6,90.6c-10,16.1-21.6,31.3-32.9,46.6c-10.4,13.9-16.6,28.7-17.5,46.1
			c-0.2,2.3-3.5,6.1-5.9,6.4c-44.9,7.8-89.7,5.2-134.4-2.3c-4.8-0.9-6.8-2.4-6.1-8c3.1-24.4-2.8-45.4-20.3-64.3
			c-20.1-21.5-38.3-44.7-56.6-67.7c-17-21.3-24.6-47.5-35.5-71.9c-12.8-28.7-25.8-57.2-37.9-86.2c-4.3-10.2-6.9-21.5-8.8-32.4
			c-0.7-4.3,1-12.1,4-13.7c3.8-1.9,11.6-0.9,14.9,2.1c10.7,9.5,20.8,19.9,30,31c16.3,19.6,32,39.7,53.3,54
			c9.5,6.4,19.7,12.1,30.1,16.8c26.8,12.3,46.4,32,60.3,57.5c4,7.4,5.2,16.3,7.4,24.6c0.7,2.3,0.5,4.5,1,6.8
			c2.3,9.7,7.3,14.4,15.1,13.5c7.8-0.9,12.6-7.3,12.1-17.1c-1.6-28.4-15.2-51.6-33.6-72.2c-14.5-16.5-32.2-29.1-52.6-37.1
			c-10.6-4.2-15.2-10.6-16.5-22.2c-4-37.9-8.8-75.5-13.9-113.3c-6.4-48.8-13.3-97.7-19.9-146.5c-0.7-4.8-1-9.9-0.9-14.7
			c0.3-10.2,9.2-19.1,19.2-17.8c3.8,0.5,9,4.8,9.9,8.5c5.4,19.4,9.9,39,14,58.7c11.3,53.9,22.3,107.7,33.4,161.6
			c0.5,2.3,1,4.5,1.9,6.6c2.6,6.9,6.8,11.4,14.9,9.9c7.4-1.4,11.9-6.8,10.6-15.2c-3.3-20.1-7.4-40.2-11.3-60.3
			c-12.1-64.3-24.6-128.5-36.5-192.8c-1-5.5-1-11.6-0.3-17.1c1.2-9.4,6.9-14.7,14-15.1c8.1-0.3,14,4.2,16.3,13.7
			c3.3,12.8,6.1,25.8,9,38.8c14.4,64.6,28.7,129.4,43.3,194c1,4.7,2.6,9.5,4.8,13.9c5.2,9.7,15.6,9.9,21,0.2
			c2.6-4.7,4-10.2,5.2-15.4C333.4,210,350,139,366.8,68c1.4-6.1,3.5-13,7.4-17.1c3.6-3.6,10.4-5.4,15.9-5.7
			c6.6-0.3,9.4,5.9,9.4,11.4c0.2,8.8-0.3,17.8-2.1,26.5c-14.9,67.9-30.1,135.6-45.2,203.3c-1,4.8-2.1,9.5-2.6,14.4
			c-0.9,8.3,3.1,14.4,10,16.1c7.1,1.6,13.3-1.7,15.6-10.2c5-18.7,9.4-37.4,13.9-56.3c10.6-44.3,21-88.7,31.5-132.8
			c1-4.5,2.8-8.8,4.7-13C428.3,99.3,432.8,97,439.2,98.4z"/>
		
			<path style="clip-path:url(#SVGID_00000101090301915790878010000000177492074720944050_);fill:#FFFFFF;stroke:#F4F4F4;stroke-width:12;stroke-miterlimit:10;" d="
			M391.4,754.3c0.2,4.8-1.6,7.3-6.1,8.8c-64.1,20.1-128,22.2-191.9-1c-2.8-1-6.2-5-6.2-7.6c-0.2-18.7,0.7-37.4,1-56.1
			c0.2-6.4,2.9-7.4,9-6.1c45.9,10.4,92.1,15.6,139.1,9.5c14.5-1.9,28.9-5,43.5-7.6c2.4-0.3,5-0.9,8.7-1.4c0.9,8,1.9,15.4,2.3,22.7
			C391.1,728.3,390.9,741.3,391.4,754.3z"/>
		
			<path style="clip-path:url(#SVGID_00000101090301915790878010000000177492074720944050_);fill:#FFFFFF;stroke:#F4F4F4;stroke-width:12;stroke-miterlimit:10;" d="
			M439.1,96.7c6.2,1.4,10,5.2,9.5,11.6c-1,12.6-2.4,25.3-4.2,37.8c-8.8,61.3-18.5,122.6-26.3,184.1c-1.9,15.4,1.7,31.5,3.3,47.3
			c3.3,34.5,6.8,68.9,10.2,103.2c-0.9,31.7-2.4,62.9-19.6,90.6c-10,16.1-21.6,31.3-32.9,46.6c-10.4,13.9-16.6,28.7-17.5,46.1
			c-0.2,2.3-3.5,6.1-5.9,6.4c-44.9,7.8-89.7,5.2-134.4-2.3c-4.8-0.9-6.8-2.4-6.1-8c3.1-24.4-2.8-45.4-20.3-64.3
			c-20.1-21.5-38.3-44.7-56.6-67.7c-17-21.3-24.6-47.5-35.5-71.9C90.1,427.5,77.1,399.1,65,370c-4.3-10.2-6.9-21.5-8.8-32.4
			c-0.7-4.3,1-12.1,4-13.7c3.8-1.9,11.6-0.9,14.9,2.1c10.7,9.5,20.8,19.9,30,31c16.3,19.6,32,39.7,53.3,54
			c9.5,6.4,19.7,11.9,30.1,16.8c26.8,12.3,46.4,31.9,60.3,57.5c4,7.4,5.2,16.3,7.4,24.6c0.7,2.3,0.5,4.5,1,6.8
			c2.3,9.7,7.3,14.4,15.1,13.5c7.8-0.9,12.6-7.3,12.1-17c-1.6-28.6-15.2-51.6-33.6-72.2c-14.5-16.5-32.2-29.1-52.6-37.1
			c-10.6-4.2-15.2-10.6-16.5-22.2c-4-37.8-8.8-75.5-13.9-113.3c-6.4-48.8-13.3-97.7-19.9-146.5c-0.7-4.8-1-9.9-0.9-14.7
			c0.3-10.2,9.2-19.1,19.2-17.8c3.8,0.5,9,4.8,9.9,8.5c5.4,19.4,9.9,39,14,58.7c11.3,53.9,22.3,107.7,33.4,161.6
			c0.5,2.3,1,4.5,1.9,6.6c2.6,6.9,6.8,11.4,14.9,9.9c7.4-1.4,11.9-6.8,10.6-15.2c-3.3-20.3-7.4-40.2-11.3-60.3
			c-12.1-64.3-24.6-128.5-36.5-192.8c-1-5.5-1-11.6-0.3-17.1c1.2-9.4,6.9-14.7,14-15.1c8.1-0.3,14,4.2,16.3,13.7
			c3.3,12.8,6.1,25.8,9,38.8c14.4,64.6,28.7,129.4,43.3,194c1,4.7,2.6,9.5,4.8,13.9c5.2,9.7,15.6,9.9,21,0.2
			c2.6-4.7,4-10.2,5.2-15.4c16.8-70.8,33.4-141.8,50.2-212.8c1.4-6.1,3.5-13,7.4-17.1c3.6-3.6,10.4-5.4,15.9-5.7
			c6.6-0.3,9.4,5.9,9.4,11.4c0.2,8.8-0.3,17.8-2.1,26.5c-14.9,67.9-30.1,135.6-45.2,203.3c-1,4.8-2.1,9.5-2.6,14.4
			c-0.9,8.3,3.1,14.5,10,16.1c7.1,1.6,13.3-1.7,15.6-10.2c5-18.7,9.4-37.4,13.9-56.3c10.6-44.3,21-88.7,31.5-132.8
			c1-4.5,2.8-8.8,4.7-13C428.1,97.7,432.6,95.3,439.1,96.7z"/>
		
			<path style="clip-path:url(#SVGID_00000101090301915790878010000000177492074720944050_);fill:#FFFFFF;stroke:#F4F4F4;stroke-width:12;stroke-miterlimit:10;" d="
			M391.3,752.6c0.2,4.8-1.6,7.3-6.1,8.8c-64.1,20.1-128,22.2-191.9-1c-2.8-1-6.2-5-6.2-7.6c-0.2-18.7,0.7-37.4,1-56.1
			c0.2-6.4,2.9-7.4,9-6.1c45.9,10.4,92.1,15.6,139.1,9.5c14.5-1.9,28.9-5,43.5-7.6c2.4-0.3,5-0.9,8.7-1.4c0.9,8,1.9,15.4,2.3,22.7
			C390.9,726.6,390.7,739.6,391.3,752.6z"/>
		
			<path style="clip-path:url(#SVGID_00000101090301915790878010000000177492074720944050_);fill:#FFFFFF;stroke:#F4F4F4;stroke-width:12;stroke-miterlimit:10;" d="
			M438.5,96.7c6.2,1.4,10,5.2,9.5,11.6c-1,12.6-2.4,25.3-4.2,37.8c-8.8,61.3-18.5,122.6-26.3,184.1c-1.9,15.4,1.7,31.5,3.3,47.3
			c3.3,34.5,6.8,68.9,10.2,103.2c-0.9,31.7-2.4,62.9-19.6,90.6c-10,16.1-21.6,31.3-32.9,46.6c-10.4,13.9-16.6,28.7-17.5,46.1
			c-0.2,2.3-3.5,6.1-5.9,6.4c-44.9,7.8-89.7,5.2-134.4-2.3c-4.8-0.9-6.8-2.4-6.1-8c3.1-24.4-2.8-45.4-20.3-64.3
			c-20.1-21.5-38.3-44.7-56.6-67.7c-17-21.3-24.6-47.5-35.5-71.9c-12.8-28.7-25.8-57.2-37.9-86.2c-4.3-10.2-6.9-21.5-8.8-32.4
			c-0.7-4.3,1-12.1,4-13.7c3.8-1.9,11.6-0.9,14.9,2.1c10.7,9.5,20.8,19.9,30,31c16.3,19.6,32,39.7,53.3,54
			c9.5,6.4,19.7,11.9,30.1,16.8c26.8,12.3,46.4,31.9,60.3,57.5c4,7.4,5.2,16.3,7.4,24.6c0.7,2.3,0.5,4.5,1,6.8
			c2.3,9.7,7.3,14.4,15.1,13.5c7.8-0.9,12.6-7.3,12.1-17c-1.6-28.6-15.2-51.6-33.6-72.2c-14.5-16.5-32.2-29.1-52.5-37.1
			c-10.7-4.2-15.2-10.6-16.5-22.2c-4-37.8-8.8-75.5-13.9-113.3c-6.4-48.8-13.3-97.7-19.9-146.5c-0.7-4.8-1-9.9-0.9-14.7
			c0.3-10.2,9.2-19.1,19.2-17.8c3.6,0.5,9,4.8,9.9,8.5c5.4,19.4,9.9,39,14,58.7c11.3,53.9,22.3,107.7,33.4,161.6
			c0.5,2.3,1,4.5,1.9,6.6c2.6,6.9,6.8,11.4,15.1,9.9c7.4-1.4,11.9-6.8,10.6-15.2c-3.3-20.3-7.4-40.2-11.3-60.3
			c-12.6-64.3-24.9-128.5-36.9-192.8c-1-5.5-1-11.6-0.3-17.1c1.2-9.4,6.9-14.7,14-15.1c8.1-0.3,14,4.2,16.3,13.7
			c3.3,12.8,6.1,25.8,9,38.8c14.4,64.6,28.7,129.4,43.3,194c1,4.7,2.6,9.5,4.8,13.9c5.2,9.7,15.6,9.9,21,0.2
			c2.6-4.7,4-10.2,5.4-15.4c16.8-70.8,33.4-141.8,50.2-212.8c1.4-6.1,3.5-13,7.4-17.1c3.6-3.6,10.4-5.4,15.9-5.7
			c6.6-0.3,9.4,5.9,9.4,11.4c0.2,8.8-0.3,17.8-2.1,26.5c-14.9,67.9-30.1,135.6-45.2,203.3c-1,4.8-2.1,9.5-2.6,14.4
			c-0.9,8.3,3.1,14.5,10,16.1c7.1,1.6,13.3-1.7,15.6-10.2c5-18.7,9.4-37.4,13.9-56.3c10.6-44.3,21-88.7,31.5-132.8
			c1-4.5,2.8-8.8,4.7-13C427.8,97.7,432.3,95.3,438.5,96.7z"/>
		
			<path style="clip-path:url(#SVGID_00000101090301915790878010000000177492074720944050_);fill:#FFFFFF;stroke:#F4F4F4;stroke-width:12;stroke-miterlimit:10;" d="
			M390.7,752.6c0.2,4.8-1.6,7.3-6.1,8.8c-64.1,20.1-128,22.2-191.9-1c-2.8-1-6.2-5-6.2-7.6c-0.2-18.7,0.7-37.4,1-56.1
			c0.2-6.4,2.9-7.4,9-6.1c45.9,10.4,92.1,15.6,139.1,9.5c14.5-1.9,28.9-5,43.5-7.6c2.4-0.3,5-0.9,8.7-1.4c0.9,8,1.9,15.4,2.3,22.7
			C390.4,726.6,390.2,739.6,390.7,752.6z"/>
		
			<path style="clip-path:url(#SVGID_00000101090301915790878010000000177492074720944050_);fill:#FFFFFF;stroke:#F4F4F4;stroke-width:12;stroke-miterlimit:10;" d="
			M439.1,98.4c6.2,1.4,10,5.2,9.5,11.6c-1,12.6-2.4,25.3-4.2,37.8c-8.8,61.3-18.5,122.6-26.3,184.1c-1.9,15.4,1.7,31.5,3.3,47.3
			c3.3,34.5,6.8,68.9,10.2,103.2c-0.9,31.7-2.4,62.9-19.6,90.6c-10,16.1-21.6,31.3-32.9,46.6c-10.4,13.9-16.6,28.7-17.5,46.1
			c-0.2,2.3-3.5,6.1-5.9,6.4c-44.9,7.8-89.7,5.2-134.4-2.3c-4.8-0.9-6.8-2.4-6.1-8c3.1-24.4-2.8-45.4-20.3-64.3
			c-20.1-21.5-38.3-44.7-56.6-67.7c-17-21.3-24.6-47.5-35.5-71.9c-12.8-28.7-25.8-57.2-37.9-86.2c-4.3-10.2-6.9-21.5-8.8-32.4
			c-0.7-4.3,1-12.1,4-13.7c3.8-1.9,11.6-0.9,14.9,2.1c10.7,9.5,20.8,19.9,30,31c16.3,19.6,32,39.7,53.3,54
			c9.5,6.4,19.7,12.1,30.1,16.8c26.8,12.3,46.4,32,60.3,57.5c4,7.4,5.2,16.3,7.4,24.6c0.7,2.3,0.5,4.5,1,6.8
			c2.3,9.7,7.3,14.4,15.1,13.5c7.8-0.9,12.6-7.3,12.1-17.1c-1.6-28.4-15.2-51.6-33.6-72.2c-14.5-16.5-32.2-29.1-52.6-37.1
			c-10.6-4.2-15.2-10.6-16.5-22.2c-4-37.9-8.8-75.5-13.9-113.3c-6.4-48.8-13.3-97.7-19.9-146.5c-0.7-4.8-1-9.9-0.9-14.7
			c0.3-10.2,9.2-19.1,19.2-17.8c3.8,0.5,9,4.8,9.9,8.5c5.4,19.4,9.9,39,14,58.7c11.3,53.9,22.3,107.7,33.4,161.6
			c0.5,2.3,1,4.5,1.9,6.6c2.6,6.9,6.8,11.4,14.9,9.9c7.4-1.4,11.9-6.8,10.6-15.2c-3.3-20.1-7.4-40.2-11.3-60.3
			c-12.1-64.3-24.6-128.5-36.5-192.8c-1-5.5-1-11.6-0.3-17.1c1.2-9.4,6.9-14.7,14-15.1c8.1-0.3,14,4.2,16.3,13.7
			c3.3,12.8,6.1,25.8,9,38.8c14.4,64.6,28.7,129.4,43.3,194c1,4.7,2.6,9.5,4.8,13.9c5.2,9.7,15.6,9.9,21,0.2
			c2.6-4.7,4-10.2,5.2-15.4C333.2,210,349.9,139,366.7,68c1.4-6.1,3.5-13,7.4-17.1c3.6-3.6,10.4-5.4,15.9-5.7
			c6.6-0.3,9.4,5.9,9.4,11.4c0.2,8.8-0.3,17.8-2.1,26.5c-14.9,67.9-30.1,135.6-45.2,203.3c-1,4.8-2.1,9.5-2.6,14.4
			c-0.9,8.3,3.1,14.4,10,16.1c7.1,1.6,13.3-1.7,15.6-10.2c5-18.7,9.4-37.4,13.9-56.3c10.6-44.3,21-88.7,31.5-132.8
			c1-4.5,2.8-8.8,4.7-13C428.1,99.3,432.6,97,439.1,98.4z"/>
		
			<path style="clip-path:url(#SVGID_00000101090301915790878010000000177492074720944050_);fill:#FFFFFF;stroke:#F4F4F4;stroke-width:12;stroke-miterlimit:10;" d="
			M391.3,754.3c0.2,4.8-1.6,7.3-6.1,8.8c-64.1,20.1-128,22.2-191.9-1c-2.8-1-6.2-5-6.2-7.6c-0.2-18.7,0.7-37.4,1-56.1
			c0.2-6.4,2.9-7.4,9-6.1c45.9,10.4,92.1,15.6,139.1,9.5c14.5-1.9,28.9-5,43.5-7.6c2.4-0.3,5-0.9,8.7-1.4c0.9,8,1.9,15.4,2.3,22.7
			C390.9,728.3,390.7,741.3,391.3,754.3z"/>
		
			<path style="clip-path:url(#SVGID_00000101090301915790878010000000177492074720944050_);fill:#FFFFFF;stroke:#F4F4F4;stroke-width:12;stroke-miterlimit:10;" d="
			M438.9,96.9c6.2,1.4,10,5.2,9.5,11.6c-1,12.6-2.4,25.3-4.2,37.8c-8.8,61.3-18.5,122.6-26.3,184.1c-1.9,15.4,1.7,31.5,3.3,47.3
			c3.3,34.5,6.8,68.9,10.2,103.2c-0.9,31.7-2.4,62.9-19.6,90.6c-10,16.1-21.6,31.3-32.9,46.6c-10.4,13.9-16.6,28.7-17.5,46.1
			c-0.2,2.3-3.5,6.1-5.9,6.4c-44.9,7.8-89.7,5.2-134.4-2.3c-4.8-0.9-6.8-2.4-6.1-8c3.1-24.4-2.8-45.4-20.3-64.3
			c-20.1-21.5-38.3-44.7-56.6-67.7c-17-21.3-24.6-47.5-35.5-71.9c-12.8-28.7-25.8-57.2-37.9-86.2c-4.3-10.2-6.9-21.5-8.8-32.4
			c-0.7-4.3,1-12.1,4-13.7c3.8-1.9,11.6-0.9,14.9,2.1c10.7,9.5,20.8,19.9,30,31c16.3,19.6,32,39.7,53.3,54
			c9.5,6.4,19.7,11.9,30.1,16.8c26.8,12.3,46.4,31.9,60.3,57.5c4,7.4,5.2,16.3,7.4,24.6c0.7,2.3,0.5,4.5,1,6.8
			c2.3,9.7,7.3,14.4,15.1,13.5c7.8-0.9,12.6-7.3,12.1-17c-1.6-28.6-15.2-51.6-33.6-72.2c-14.5-16.5-32.2-29.1-52.6-37.1
			c-10.6-4.2-15.2-10.6-16.5-22.2c-4-37.8-8.8-75.5-13.9-113.3c-6.4-48.8-13.3-97.7-19.9-146.5c-0.7-4.8-1-9.9-0.9-14.7
			c0.3-10.2,9.2-19.1,19.2-17.8c3.8,0.5,9,4.8,9.9,8.5c5.4,19.4,9.9,39,14,58.7c11.3,53.9,22.3,107.7,33.4,161.6
			c0.5,2.3,1,4.5,1.9,6.6c2.6,6.9,6.8,11.4,14.9,9.9c7.4-1.4,11.9-6.8,10.6-15.2c-3.3-20.3-7.4-40.2-11.3-60.3
			C227.4,195.1,215,130.8,203,66.6c-1-5.5-1-11.6-0.3-17.1c1.2-9.4,6.9-14.7,14-15.1c8.1-0.3,14,4.2,16.3,13.7
			c3.3,12.8,6.1,25.8,9,38.8c14.4,64.6,28.7,129.4,43.3,194c1,4.7,2.6,9.5,4.8,13.9c5.2,9.7,15.6,9.9,21,0.2
			c2.6-4.7,4-10.2,5.2-15.4c16.8-70.8,33.4-141.8,50.2-212.8c1.4-6.1,3.5-13,7.4-17.1c3.6-3.6,10.4-5.4,15.9-5.7
			c6.6-0.3,9.4,5.9,9.4,11.4c0.2,8.8-0.3,17.8-2.1,26.5C382.3,149.5,367,217.2,351.9,285c-1,4.8-2.1,9.5-2.6,14.4
			c-0.9,8.3,3.1,14.5,10,16.1c7.1,1.6,13.3-1.7,15.6-10.2c5-18.7,9.4-37.4,13.9-56.3c10.6-44.3,21-88.7,31.5-132.8
			c1-4.5,2.8-8.8,4.7-13C428,97.9,432.5,95.5,438.9,96.9z"/>
		
			<path style="clip-path:url(#SVGID_00000101090301915790878010000000177492074720944050_);fill:#FFFFFF;stroke:#F4F4F4;stroke-width:12;stroke-miterlimit:10;" d="
			M391.1,752.7c0.2,4.8-1.6,7.3-6.1,8.8c-64.1,20.1-128,22.2-191.9-1c-2.8-1-6.2-5-6.2-7.6c-0.2-18.7,0.7-37.4,1-56.1
			c0.2-6.4,2.9-7.4,9-6.1c45.9,10.4,92.1,15.6,139.1,9.5c14.5-1.9,28.9-5,43.5-7.6c2.4-0.3,5-0.9,8.7-1.4c0.9,8,1.9,15.4,2.3,22.7
			C390.7,726.8,390.6,739.7,391.1,752.7z"/>
		
			<path style="clip-path:url(#SVGID_00000101090301915790878010000000177492074720944050_);fill:#FFFFFF;stroke:#F4F4F4;stroke-width:12;stroke-miterlimit:10;" d="
			M438.4,96.9c6.2,1.4,10,5.2,9.5,11.6c-1,12.6-2.4,25.3-4.2,37.8c-8.8,61.3-18.5,122.6-26.3,184.1c-1.9,15.4,1.7,31.5,3.3,47.3
			c3.3,34.5,6.8,68.9,10.2,103.2c-0.9,31.7-2.4,62.9-19.6,90.6c-10,16.1-21.6,31.3-32.9,46.6c-10.4,13.9-16.6,28.7-17.5,46.1
			c-0.2,2.3-3.5,6.1-5.9,6.4c-44.9,7.8-89.7,5.2-134.4-2.3c-4.8-0.9-6.8-2.4-6.1-8c3.1-24.4-2.8-45.4-20.3-64.3
			c-20.1-21.5-38.3-44.7-56.6-67.7c-17-21.3-24.6-47.5-35.5-71.9c-12.8-28.7-25.8-57.2-37.9-86.2c-4.3-10.2-6.9-21.5-8.8-32.4
			c-0.7-4.3,1-12.1,4-13.7c3.8-1.9,11.6-0.9,14.9,2.1c10.7,9.5,20.8,19.9,30,31c16.3,19.6,32,39.7,53.3,54
			c9.5,6.4,19.7,11.9,30.1,16.8c26.8,12.3,46.4,31.9,60.3,57.5c4,7.4,5.2,16.3,7.4,24.6c0.7,2.3,0.5,4.5,1,6.8
			c2.3,9.7,7.3,14.4,15.1,13.5c7.8-0.9,12.6-7.3,12.1-17c-1.6-28.6-15.2-51.6-33.6-72.2c-14.5-16.5-32.2-29.1-52.5-37.1
			c-10.7-4.2-15.2-10.6-16.5-22.2c-4-37.8-8.8-75.5-13.9-113.3c-6.4-48.8-13.3-97.7-19.9-146.5c-0.7-4.8-1-9.9-0.9-14.7
			c0.3-10.2,9.2-19.1,19.2-17.8c3.6,0.5,9,4.8,9.9,8.5c5.4,19.4,9.9,39,14,58.7c11.3,53.9,22.3,107.7,33.4,161.6
			c0.5,2.3,1,4.5,1.9,6.6c2.6,6.9,6.8,11.4,15.1,9.9c7.4-1.4,11.9-6.8,10.6-15.2c-3.3-20.3-7.4-40.2-11.3-60.3
			c-12.6-64.3-24.9-128.5-36.9-192.8c-1-5.5-1-11.6-0.3-17.1c1.2-9.4,6.9-14.7,14-15.1c8.1-0.3,14,4.2,16.3,13.7
			c3.3,12.8,6.1,25.8,9,38.8c14.4,64.6,28.7,129.4,43.3,194c1,4.7,2.6,9.5,4.8,13.9c5.2,9.7,15.6,9.9,21,0.2
			c2.6-4.7,4-10.2,5.4-15.4c16.8-70.8,33.4-141.8,50.2-212.8c1.4-6.1,3.5-13,7.4-17.1c3.6-3.6,10.4-5.4,15.9-5.7
			c6.6-0.3,9.4,5.9,9.4,11.4c0.2,8.8-0.3,17.8-2.1,26.5c-14.9,67.9-30.1,135.6-45.2,203.3c-1,4.8-2.1,9.5-2.6,14.4
			c-0.9,8.3,3.1,14.5,10,16.1c7.1,1.6,13.3-1.7,15.6-10.2c5-18.7,9.4-37.4,13.9-56.3c10.6-44.3,21-88.7,31.5-132.8
			c1-4.5,2.8-8.8,4.7-13C427.6,97.9,432.1,95.5,438.4,96.9z"/>
		
			<path style="clip-path:url(#SVGID_00000101090301915790878010000000177492074720944050_);fill:#FFFFFF;stroke:#F4F4F4;stroke-width:12;stroke-miterlimit:10;" d="
			M390.6,752.7c0.2,4.8-1.6,7.3-6.1,8.8c-64.1,20.1-128,22.2-191.9-1c-2.8-1-6.2-5-6.2-7.6c-0.2-18.7,0.7-37.4,1-56.1
			c0.2-6.4,2.9-7.4,9-6.1c45.9,10.4,92.1,15.6,139.1,9.5c14.5-1.9,28.9-5,43.5-7.6c2.4-0.3,5-0.9,8.7-1.4c0.9,8,1.9,15.4,2.3,22.7
			C390.2,726.8,390,739.7,390.6,752.7z"/>
		
			<path style="clip-path:url(#SVGID_00000101090301915790878010000000177492074720944050_);fill:#FFFFFF;stroke:#F4F4F4;stroke-width:12;stroke-miterlimit:10;" d="
			M391.1,754.5c0.2,4.8-1.6,7.3-6.1,8.8c-64.1,20.1-128,22.2-191.9-1c-2.8-1-6.2-5-6.2-7.6c-0.2-18.7,0.7-37.4,1-56.1
			c0.2-6.4,2.9-7.4,9-6.1c45.9,10.4,92.1,15.6,139.1,9.5c14.5-1.9,28.9-5,43.5-7.6c2.4-0.3,5-0.9,8.7-1.4c0.9,8,1.9,15.4,2.3,22.7
			C390.7,728.5,390.6,741.5,391.1,754.5z"/>
		<circle style="clip-path:url(#SVGID_00000101090301915790878010000000177492074720944050_);" cx="227.1" cy="735.1" r="16.1"/>
		<g style="clip-path:url(#SVGID_00000101090301915790878010000000177492074720944050_);">
			<path class="st6" d="M248.6,474.9c2.6-0.9,5-1.9,7.3-3.5c2.8-1.9,5-4.2,6.8-6.6c-0.7-3.6-1.6-7.3-2.6-10.9
				c-2.9-4-6.1-7.8-9.5-11.4c-3.5-3.8-6.9-7.4-10.7-10.9c-0.2,1.7,0.3,3.8,1.9,5.4c1.6,1.6,3.1,3.6,4.5,5.9
				c-1.7,0.3-3.3,1.4-4.2,3.1c-0.2,0.3-0.2,0.5-0.3,0.9c-1.9,1.2-3.6,2.6-5,4.2c-1,0.3-2.1,1-2.8,1.9c-1.7,1.7-2.3,3.8-2.3,5.7
				c-0.7,0.3-1.4,0.7-2.1,1.2c4,4.3,7.6,9,10.9,13.9C243.2,474.4,245.8,474.8,248.6,474.9z"/>
			<path class="st7" d="M438.9,98.6c-6.4-1.4-10.9,0.9-13.9,6.1c-1.9,4.2-3.6,8.5-4.7,13c-10.6,44.2-21,88.5-31.5,132.8
				c-4.5,18.9-8.8,37.6-13.9,56.3c-2.3,8.5-8.5,11.8-15.6,10.2c-6.9-1.7-10.9-7.8-10-16.1c0.5-4.8,1.6-9.5,2.6-14.4
				c15.1-67.7,30.3-135.4,45.2-203.3c1.7-8.7,2.3-17.7,2.1-26.5c0-5.5-2.8-11.8-9.4-11.4c-5.5,0.3-12.3,2.1-15.9,5.7
				c-4,4.2-6.1,11.1-7.4,17.1c-16.8,71-33.4,142-50.2,212.8c-1.2,5.2-2.6,10.7-5.2,15.4c-5.4,9.7-15.8,9.5-21-0.2
				c-2.3-4.3-3.8-9.2-4.8-13.9c-14.5-64.6-28.9-129.4-43.3-194c-2.9-13-5.7-26-9-38.8c-2.3-9.5-8.1-14-16.3-13.7
				c-7.1,0.3-12.8,5.7-14,15.1c-0.7,5.5-0.7,11.6,0.3,17.1c11.9,64.3,24.4,128.5,36.5,192.8c3.8,20.1,8,40.2,11.3,60.3
				c1.4,8.5-3.1,13.9-10.6,15.2c-8.1,1.6-12.3-2.9-14.9-9.9c-0.9-2.1-1.4-4.3-1.9-6.6c-11.1-53.9-22.2-107.7-33.4-161.6
				c-4.2-19.7-8.7-39.3-14-58.7c-0.9-3.6-6.1-8-9.9-8.5c-10-1.2-18.9,7.6-19.2,17.8c-0.2,4.8,0.2,9.9,0.9,14.7
				c6.6,48.8,13.5,97.7,19.9,146.5c5,37.8,9.9,75.3,13.9,113.3c1.2,11.6,5.9,18,16.5,22.2c15.6,6.1,29.6,14.9,41.9,26.2
				c3.8,3.5,7.3,7.1,10.7,10.9c3.3,3.8,6.6,7.6,9.5,11.4c0.9,3.6,1.7,7.3,2.6,10.9c-1.7,2.4-3.8,4.7-6.8,6.6
				c-2.3,1.6-4.7,2.6-7.3,3.5c-2.8-0.2-5.4-0.5-8.1-1c-3.3-4.8-6.9-9.5-10.9-13.9c-11.3-12.6-24.9-22.9-41.2-30.3
				c-10.4-4.7-20.6-10.4-30.1-16.8c-21.3-14.4-37.1-34.5-53.3-54c-9.2-11.1-19.2-21.5-30-31c-3.3-2.9-11.1-4-14.9-2.1
				c-2.9,1.6-4.7,9.4-4,13.7c1.9,10.9,4.5,22.2,8.8,32.4c12.1,29.1,25.1,57.5,37.9,86.2c10.9,24.4,18.5,50.6,35.5,71.9
				c18.4,23,36.5,46.2,56.6,67.7c17.5,18.9,23.4,39.8,20.3,64.3c-0.7,5.5,1.2,7.1,6.1,8c44.7,7.4,89.5,10,134.4,2.3
				c2.4-0.3,5.7-4.2,5.9-6.4c0.9-17.3,7.1-32.2,17.5-46.1c11.3-15.2,22.9-30.5,32.9-46.6c17.1-27.7,18.7-58.9,19.6-90.6
				c-3.5-34.3-6.9-68.8-10.2-103.2c-1.6-15.8-5.2-31.9-3.3-47.3c7.8-61.5,17.5-122.8,26.3-184.1c1.7-12.5,3.1-25.1,4.2-37.8
				C448.9,103.8,445.1,100,438.9,98.6z"/>
		</g>
	</g>
</g>
</svg>
