<?xml version="1.0" encoding="utf-8"?>
<!-- Generator: Adobe Illustrator 27.5.0, SVG Export Plug-In . SVG Version: 6.00 Build 0)  -->
<svg version="1.1" id="Layer_1" xmlns="http://www.w3.org/2000/svg" xmlns:xlink="http://www.w3.org/1999/xlink" x="0px" y="0px"
	 viewBox="0 0 512 512" style="enable-background:new 0 0 512 512;" xml:space="preserve">
<style type="text/css">
	.st0{fill:#FFFFFF;}
	.st1{fill:none;stroke:#00DFBC;stroke-width:39;stroke-miterlimit:10;}
	.st2{fill:none;stroke:#00FFCE;stroke-width:18;stroke-miterlimit:10;}
	.st3{fill:#F4F4F4;}
</style>
<g>
	<g>
		<g id="XMLID_00000134236233557926763000000013711061093859933867_">
			<g>
				<path d="M342.8,61.8c11,2.2,18.4,11.1,17.9,23.2c-0.4,10.1-1.9,20.2-3.3,30.2c-4.8,32.9-10.3,65.8-14.4,98.8
					c-1.2,9.5,1.3,19.5,2.4,29.2c2.6,22.8,5.9,45.6,4.6,68.7c-1.4,24.3-9.3,46.1-24.9,65.1c-5,6.1-9.1,13-13.4,19.7
					c-0.8,1.3-1,3.1-1.5,4.9c1.2,0.4,1.9,0.8,2.6,0.8c8.3,0,10.5,1.4,11.9,9.4c3,17.3,4,34.7,2.5,52.2c-0.4,5-2.8,8-7.4,9.5
					c-25.6,8.7-51.7,13.5-79,11.7c-18.6-1.2-36.4-5.4-53.9-11.6c-4.8-1.7-7.3-4.7-8.1-9.6c-3-18-2.4-35.8,2.6-53.4
					c2.1-7.5,2.6-7.7,14-9.2c0.6-8.9-0.4-17-7.2-24.2c-9.7-10.3-19.2-20.9-27.6-32.2c-8-10.8-15.7-22.1-21.3-34.2
					c-11.5-24.7-21.7-50-31.8-75.3c-2.8-6.9-4.3-14.8-4.4-22.3c-0.2-16.2,17-26.5,31.2-18.4c6.6,3.8,12.4,9.5,17.7,15.1
					c6.8,7.1,12.7,15,18.9,22.6c0.8,1,1,2.4,1.5,3.6c0.7-0.5,1.5-1.1,2.2-1.6c-1.3-10-2.6-19.9-3.9-29.9
					c-3.2-24.6-6.5-49.2-9.7-73.8c-1.8-13.5-3.1-27.2-5.4-40.6c-2.6-14.9,8.5-34.2,29.3-33.7c0.5,0,0.9-0.2,1.4-0.4
					c0.9-4.1,1.5-8.2,2.6-12.1c3.7-12.5,11.3-18.6,22.8-18.5c10.9,0.1,21,7.8,24,19.2c3.4,13.4,6.1,26.9,9.2,40.4
					c4.5,20.1,9,40.2,13.5,60.4c0.4,1.6,0.9,3.1,2.3,4.6c0.6-2.3,1.3-4.6,1.8-6.9c6.5-28,12.9-56.1,19.8-84c1.6-6.5,4.3-13,7.9-18.6
					c4.5-7.1,11.9-10.6,20.5-10.4c12.8,0.3,20.7,8.2,22.3,22.3c0.3,2.8,0.5,5.6,0.7,8.5C336.9,61.2,339.9,61.2,342.8,61.8z
					 M344.9,83.8c0.3-3.6-1.9-5.8-5.5-6.7c-3.7-0.8-6.3,0.5-7.8,3.7c-1.1,2.4-2.1,4.9-2.7,7.5c-6.1,25.6-12.1,51.1-18.2,76.7
					c-2.6,10.8-5.1,21.7-8,32.5c-1.3,4.9-4.9,6.8-9,5.9c-4-0.9-6.3-4.4-5.8-9.3c0.3-2.8,0.9-5.6,1.5-8.3
					c8.7-39.1,17.5-78.2,26.1-117.4c1.1-5,1.3-10.2,1.2-15.3c0-3.2-1.6-6.8-5.4-6.6c-3.2,0.2-7.1,1.2-9.2,3.3
					c-2.4,2.4-3.5,6.4-4.3,9.9c-9.8,40.9-19.3,81.9-29,122.9c-0.7,3.1-1.5,6.2-3,8.9c-3.1,5.6-9.1,5.4-12.1-0.1
					c-1.3-2.5-2.2-5.2-2.8-8c-8.4-37.3-16.7-74.7-25-112c-1.7-7.5-3.3-14.9-5.2-22.4c-1.4-5.5-4.7-8.1-9.4-7.9
					c-4.2,0.2-7.4,3.3-8.1,8.7c-0.4,3.2-0.4,6.7,0.2,9.9c6.9,37.1,14.1,74.2,21.1,111.3c2.2,11.6,4.6,23.2,6.5,34.8
					c0.8,4.9-1.8,8-6.1,8.8c-4.7,0.9-7.2-1.7-8.6-5.7c-0.5-1.2-0.8-2.5-1.1-3.8c-6.4-31.1-12.8-62.2-19.3-93.3
					c-2.4-11.4-5-22.7-8.1-33.9c-0.6-2.1-3.6-4.6-5.7-4.9c-5.8-0.7-10.9,4.4-11.1,10.3c-0.1,2.8,0.1,5.7,0.5,8.5
					c3.8,28.2,7.8,56.4,11.5,84.6c2.9,21.8,5.7,43.6,8,65.4c0.7,6.7,3.4,10.4,9.5,12.8c11.8,4.7,21.9,11.9,30.4,21.4
					c10.6,12,18.4,25.3,19.4,41.7c0.3,5.6-2.4,9.3-7,9.8c-4.4,0.5-7.4-2.1-8.7-7.8c-0.3-1.3-0.3-2.7-0.6-3.9
					c-1.3-4.8-2-9.9-4.3-14.2c-8-14.7-19.3-26.1-34.8-33.2c-6-2.7-11.9-6-17.4-9.7c-12.3-8.3-21.4-19.9-30.8-31.2
					c-5.3-6.4-11.1-12.4-17.3-17.9c-1.9-1.7-6.4-2.3-8.6-1.2c-1.7,0.9-2.7,5.3-2.3,7.9c1.1,6.3,2.6,12.8,5.1,18.7
					c7,16.7,14.6,33.2,21.9,49.8c6.3,14.1,10.7,29.2,20.5,41.5c10.6,13.3,21.1,26.7,32.7,39.1c10.1,10.8,13.5,23,11.7,37.1
					c-0.4,3.2,0.7,4.1,3.5,4.6c25.8,4.3,51.6,5.8,77.6,1.3c1.3-0.2,3.3-2.4,3.4-3.7c0.4-10,4.1-18.7,10.1-26.6
					c6.6-8.8,13.3-17.6,19-26.9c9.9-16,10.8-34,11.3-52.3c-2-19.9-4-39.7-5.9-59.6c-0.9-9.1-3-18.4-1.9-27.3
					c4.5-35.5,10.1-70.8,15.2-106.3C343.6,98.4,344.4,91.1,344.9,83.8z M308.3,460.9c2.7-0.8,3.6-2.3,3.5-5.1
					c-0.3-7.5-0.2-15-0.5-22.5c-0.2-4.2-0.8-8.5-1.3-13.1c-2.1,0.3-3.6,0.5-5,0.8c-8.3,1.5-16.7,3.4-25.1,4.4
					c-27.1,3.5-53.8,0.5-80.3-5.5c-3.4-0.8-5.1-0.2-5.2,3.5c-0.2,10.8-0.7,21.6-0.6,32.4c0,1.5,2.1,3.8,3.6,4.4
					C234.4,473.7,271.3,472.5,308.3,460.9z"/>
				<path class="st0" d="M339.5,77.1c3.6,0.8,5.8,3,5.5,6.7c-0.6,7.3-1.4,14.6-2.4,21.8c-5.1,35.4-10.7,70.8-15.2,106.3
					c-1.1,8.9,1,18.2,1.9,27.3c1.9,19.9,3.9,39.8,5.9,59.6c-0.5,18.3-1.4,36.3-11.3,52.3c-5.8,9.3-12.5,18.1-19,26.9
					c-6,8-9.6,16.6-10.1,26.6c-0.1,1.3-2,3.5-3.4,3.7c-25.9,4.5-51.8,3-77.6-1.3c-2.8-0.5-3.9-1.4-3.5-4.6
					c1.8-14.1-1.6-26.2-11.7-37.1c-11.6-12.4-22.1-25.8-32.7-39.1c-9.8-12.3-14.2-27.4-20.5-41.5c-7.4-16.6-14.9-33-21.9-49.8
					c-2.5-5.9-4-12.4-5.1-18.7c-0.4-2.5,0.6-7,2.3-7.9c2.2-1.1,6.7-0.5,8.6,1.2c6.2,5.5,12,11.5,17.3,17.9
					c9.4,11.3,18.5,22.9,30.8,31.2c5.5,3.7,11.4,6.9,17.4,9.7c15.5,7.1,26.8,18.4,34.8,33.2c2.3,4.3,3,9.4,4.3,14.2
					c0.4,1.3,0.3,2.6,0.6,3.9c1.3,5.6,4.2,8.3,8.7,7.8c4.5-0.5,7.3-4.2,7-9.8c-0.9-16.5-8.8-29.8-19.4-41.7
					c-8.4-9.5-18.6-16.8-30.4-21.4c-6.1-2.4-8.8-6.1-9.5-12.8c-2.3-21.8-5.1-43.6-8-65.4c-3.7-28.2-7.7-56.4-11.5-84.6
					c-0.4-2.8-0.6-5.7-0.5-8.5c0.2-5.9,5.3-11,11.1-10.3c2.2,0.3,5.2,2.8,5.7,4.9c3.1,11.2,5.7,22.5,8.1,33.9
					c6.5,31.1,12.9,62.2,19.3,93.3c0.3,1.3,0.6,2.6,1.1,3.8c1.5,4,3.9,6.6,8.6,5.7c4.3-0.8,6.9-3.9,6.1-8.8
					c-1.9-11.7-4.3-23.2-6.5-34.8c-7-37.1-14.2-74.2-21.1-111.3c-0.6-3.2-0.6-6.7-0.2-9.9c0.7-5.4,4-8.5,8.1-8.7
					c4.7-0.2,8.1,2.4,9.4,7.9c1.9,7.4,3.5,14.9,5.2,22.4c8.3,37.3,16.6,74.7,25,112c0.6,2.7,1.5,5.5,2.8,8c3,5.6,9,5.7,12.1,0.1
					c1.5-2.7,2.3-5.9,3-8.9c9.7-40.9,19.3-81.9,29-122.9c0.8-3.5,2-7.5,4.3-9.9c2.1-2.1,6-3.1,9.2-3.3c3.8-0.2,5.4,3.4,5.4,6.6
					c0.1,5.1-0.2,10.3-1.2,15.3c-8.6,39.2-17.4,78.3-26.1,117.4c-0.6,2.8-1.2,5.5-1.5,8.3c-0.5,4.8,1.8,8.4,5.8,9.3
					c4.1,0.9,7.7-1,9-5.9c2.9-10.8,5.4-21.6,8-32.5c6.1-25.6,12.1-51.2,18.2-76.7c0.6-2.6,1.6-5.1,2.7-7.5
					C333.2,77.7,335.8,76.3,339.5,77.1z"/>
				<path class="st0" d="M311.9,455.8c0.1,2.8-0.9,4.2-3.5,5.1c-37,11.6-73.9,12.8-110.8-0.6c-1.6-0.6-3.6-2.9-3.6-4.4
					c-0.1-10.8,0.4-21.6,0.6-32.4c0.1-3.7,1.7-4.3,5.2-3.5c26.5,6,53.2,9,80.3,5.5c8.4-1.1,16.7-2.9,25.1-4.4c1.4-0.2,2.9-0.5,5-0.8
					c0.5,4.6,1.1,8.9,1.3,13.1C311.7,440.8,311.6,448.3,311.9,455.8z"/>
			</g>
			<g>
				<path class="st1" d="M174.4,234.4c-1.3-10-2.6-19.9-3.9-29.9c-3.2-24.6-6.5-49.2-9.7-73.8c-1.8-13.5-3.1-27.2-5.4-40.6
					c-2.6-14.9,8.5-34.2,29.3-33.7c0.5,0,0.9-0.2,1.4-0.4c0.9-4.1,1.5-8.2,2.6-12.1c3.7-12.5,11.3-18.6,22.8-18.5
					c10.9,0.1,21,7.8,24,19.2c3.4,13.4,6.1,26.9,9.2,40.4c4.5,20.1,9,40.2,13.5,60.4c0.4,1.6,0.9,3.1,2.3,4.6
					c0.6-2.3,1.3-4.6,1.8-6.9c6.5-28,12.9-56.1,19.8-84c1.6-6.5,4.3-13,7.9-18.6c4.5-7.1,11.9-10.6,20.5-10.4
					c12.8,0.3,20.7,8.2,22.3,22.3c0.3,2.8,0.5,5.6,0.7,8.5c3.4,0.3,6.4,0.2,9.2,0.8c11,2.2,18.4,11.1,17.9,23.2
					c-0.4,10.1-1.9,20.2-3.3,30.2c-4.8,32.9-10.3,65.8-14.4,98.8c-1.2,9.5,1.3,19.5,2.4,29.2c2.6,22.8,5.9,45.6,4.6,68.7
					c-1.4,24.3-9.3,46.1-24.9,65.1c-5,6.1-9.1,13-13.4,19.7c-0.8,1.3-1,3.1-1.5,4.9c1.2,0.4,1.9,0.8,2.6,0.8
					c8.3,0,10.5,1.4,11.9,9.4c3,17.3,4,34.7,2.5,52.2c-0.4,5-2.8,8-7.4,9.5c-25.6,8.7-51.7,13.5-79,11.7
					c-18.6-1.2-36.4-5.4-53.9-11.6c-4.8-1.7-7.3-4.7-8.1-9.6c-3-18-2.4-35.8,2.6-53.4c2.1-7.5,2.6-7.7,14-9.2
					c0.6-8.9-0.4-17-7.2-24.2c-9.7-10.3-19.2-20.9-27.6-32.2c-8-10.8-15.7-22.1-21.3-34.2c-11.5-24.7-21.7-50-31.8-75.3
					c-2.8-6.9-4.3-14.8-4.4-22.3c-0.2-16.2,17-26.5,31.2-18.4c6.6,3.8,12.4,9.5,17.7,15.1c6.8,7.1,12.7,15,18.9,22.6
					c0.8,1,1,2.4,1.5,3.6C172.9,235.4,173.7,234.9,174.4,234.4z"/>
				<path class="st1" d="M335.1,298.8c-2-19.9-4-39.7-5.9-59.6c-0.9-9.1-3-18.4-1.9-27.3c4.5-35.5,10.1-70.8,15.2-106.3
					c1-7.2,1.8-14.5,2.4-21.8c0.3-3.6-1.9-5.8-5.5-6.7c-3.7-0.8-6.3,0.5-7.8,3.7c-1.1,2.4-2.1,4.9-2.7,7.5
					c-6.1,25.6-12.1,51.1-18.2,76.7c-2.6,10.8-5.1,21.7-8,32.5c-1.3,4.9-4.9,6.8-9,5.9c-4-0.9-6.3-4.4-5.8-9.3
					c0.3-2.8,0.9-5.6,1.5-8.3c8.7-39.1,17.5-78.2,26.1-117.4c1.1-5,1.3-10.2,1.2-15.3c0-3.2-1.6-6.8-5.4-6.6
					c-3.2,0.2-7.1,1.2-9.2,3.3c-2.4,2.4-3.5,6.4-4.3,9.9c-9.8,40.9-19.3,81.9-29,122.9c-0.7,3.1-1.5,6.2-3,8.9
					c-3.1,5.6-9.1,5.4-12.1-0.1c-1.3-2.5-2.2-5.2-2.8-8c-8.4-37.3-16.7-74.7-25-112c-1.7-7.5-3.3-14.9-5.2-22.4
					c-1.4-5.5-4.7-8.1-9.4-7.9c-4.2,0.2-7.4,3.3-8.1,8.7c-0.4,3.2-0.4,6.7,0.2,9.9c6.9,37.1,14.1,74.2,21.1,111.3
					c2.2,11.6,4.6,23.2,6.5,34.8c0.8,4.9-1.8,8-6.1,8.8c-4.7,0.9-7.2-1.7-8.6-5.7c-0.5-1.2-0.8-2.5-1.1-3.8
					c-6.4-31.1-12.8-62.2-19.3-93.3c-2.4-11.4-5-22.7-8.1-33.9c-0.6-2.1-3.6-4.6-5.7-4.9c-5.8-0.7-10.9,4.4-11.1,10.3
					c-0.1,2.8,0.1,5.7,0.5,8.5c3.8,28.2,7.8,56.4,11.5,84.6c2.9,21.8,5.7,43.6,8,65.4c0.7,6.7,3.4,10.4,9.5,12.8
					c11.8,4.7,21.9,11.9,30.4,21.4c10.6,12,18.4,25.3,19.4,41.7c0.3,5.6-2.4,9.3-7,9.8c-4.4,0.5-7.4-2.1-8.7-7.8
					c-0.3-1.3-0.3-2.7-0.6-3.9c-1.3-4.8-2-9.9-4.3-14.2c-8-14.7-19.3-26.1-34.8-33.2c-6-2.7-11.9-6-17.4-9.7
					c-12.3-8.3-21.4-19.9-30.8-31.2c-5.3-6.4-11.1-12.4-17.3-17.9c-1.9-1.7-6.4-2.3-8.6-1.2c-1.7,0.9-2.7,5.3-2.3,7.9
					c1.1,6.3,2.6,12.8,5.1,18.7c7,16.7,14.6,33.2,21.9,49.8c6.3,14.1,10.7,29.2,20.5,41.5c10.6,13.3,21.1,26.7,32.7,39.1
					c10.1,10.8,13.5,23,11.7,37.1c-0.4,3.2,0.7,4.1,3.5,4.6c25.8,4.3,51.6,5.8,77.6,1.3c1.3-0.2,3.3-2.4,3.4-3.7
					c0.4-10,4.1-18.7,10.1-26.6c6.6-8.8,13.3-17.6,19-26.9C333.7,335.1,334.6,317.1,335.1,298.8z"/>
				<path class="st1" d="M310.1,420.2c-2.1,0.3-3.6,0.5-5,0.8c-8.3,1.5-16.7,3.4-25.1,4.4c-27.1,3.5-53.8,0.5-80.3-5.5
					c-3.4-0.8-5.1-0.2-5.2,3.5c-0.2,10.8-0.7,21.6-0.6,32.4c0,1.5,2.1,3.8,3.6,4.4c36.8,13.5,73.8,12.3,110.8,0.6
					c2.7-0.8,3.6-2.3,3.5-5.1c-0.3-7.5-0.2-15-0.5-22.5C311.2,429.1,310.6,424.8,310.1,420.2z"/>
			</g>
		</g>
		<g id="XMLID_00000129191893368608473650000009051939094113530550_">
			<g>
				<path d="M342.5,61.8c11,2.2,18.4,11.1,17.9,23.2c-0.4,10.1-1.9,20.2-3.3,30.2c-4.8,32.9-10.3,65.8-14.4,98.8
					c-1.2,9.5,1.3,19.5,2.4,29.2c2.6,22.8,5.9,45.6,4.6,68.7c-1.4,24.3-9.3,46.1-24.9,65.1c-5,6.1-9.1,13-13.4,19.7
					c-0.9,1.3-1,3.1-1.5,4.9c1.2,0.4,1.9,0.8,2.6,0.8c8.3,0,10.5,1.4,11.9,9.4c3,17.3,4,34.7,2.5,52.2c-0.4,5-2.8,8-7.4,9.5
					c-25.6,8.7-51.7,13.5-79,11.7c-18.6-1.2-36.5-5.4-54-11.6c-4.8-1.7-7.3-4.7-8.1-9.6c-3-18-2.4-35.8,2.6-53.4
					c2.1-7.5,2.6-7.7,14-9.2c0.6-8.9-0.4-17-7.1-24.2c-9.7-10.3-19.2-20.9-27.6-32.2c-8-10.8-15.7-22.1-21.3-34.2
					c-11.5-24.7-21.7-50-31.8-75.3c-2.8-7-4.3-14.8-4.4-22.3c-0.2-16.2,17-26.5,31.1-18.4c6.6,3.8,12.4,9.5,17.7,15.1
					c6.8,7.1,12.7,15,18.9,22.6c0.8,1,1,2.4,1.5,3.6c0.7-0.5,1.5-1.1,2.2-1.6c-1.3-10-2.6-19.9-3.9-29.9
					c-3.2-24.6-6.5-49.2-9.7-73.8c-1.8-13.5-3.1-27.1-5.4-40.6c-2.6-14.9,8.5-34.2,29.3-33.7c0.5,0,0.9-0.2,1.4-0.4
					c0.9-4.1,1.5-8.2,2.6-12.1c3.7-12.5,11.4-18.6,22.8-18.5c10.9,0.1,21,7.8,24,19.2c3.4,13.4,6.1,26.9,9.1,40.4
					c4.5,20.1,9,40.2,13.5,60.4c0.4,1.6,0.9,3.1,2.3,4.6c0.6-2.3,1.3-4.6,1.8-6.9c6.6-28,12.9-56.1,19.8-84c1.6-6.5,4.4-13,7.9-18.6
					c4.5-7.1,11.9-10.6,20.5-10.4c12.9,0.3,20.7,8.2,22.3,22.3c0.3,2.8,0.5,5.6,0.7,8.5C336.6,61.2,339.6,61.2,342.5,61.8z
					 M344.7,83.8c0.3-3.6-1.9-5.8-5.5-6.7c-3.7-0.8-6.3,0.5-7.8,3.7c-1.1,2.4-2.1,4.9-2.7,7.5c-6.1,25.6-12.1,51.1-18.2,76.7
					c-2.6,10.8-5.1,21.7-8,32.5c-1.3,4.9-5,6.8-9,5.9c-3.9-0.9-6.3-4.4-5.8-9.3c0.3-2.8,0.9-5.6,1.5-8.3
					c8.7-39.1,17.5-78.2,26.1-117.4c1.1-5,1.3-10.2,1.2-15.3c0-3.2-1.6-6.8-5.4-6.6c-3.2,0.2-7.1,1.2-9.2,3.3
					c-2.4,2.4-3.5,6.4-4.3,9.9c-9.8,40.9-19.3,81.9-29,122.9c-0.7,3.1-1.5,6.2-3.1,8.9c-3.1,5.6-9.1,5.4-12.1-0.1
					c-1.3-2.5-2.2-5.2-2.8-8c-8.4-37.3-16.7-74.7-25-112c-1.7-7.5-3.3-14.9-5.2-22.4c-1.4-5.5-4.7-8.1-9.4-7.9
					c-4.2,0.2-7.4,3.3-8.1,8.7c-0.4,3.2-0.4,6.7,0.2,9.9c6.9,37.1,14.1,74.2,21.1,111.3c2.2,11.6,4.6,23.2,6.5,34.8
					c0.8,4.9-1.8,8-6.1,8.8c-4.7,0.9-7.2-1.7-8.7-5.7c-0.5-1.2-0.8-2.5-1.1-3.8c-6.4-31.1-12.8-62.2-19.3-93.3
					c-2.4-11.4-5-22.7-8.1-33.9c-0.6-2.1-3.6-4.6-5.7-4.9c-5.8-0.7-10.9,4.4-11.1,10.3c-0.1,2.8,0.1,5.7,0.5,8.5
					c3.8,28.2,7.8,56.4,11.5,84.6c2.9,21.8,5.7,43.6,8,65.4c0.7,6.7,3.4,10.4,9.5,12.8c11.8,4.7,21.9,11.9,30.3,21.4
					c10.6,12,18.4,25.3,19.4,41.7c0.3,5.6-2.4,9.3-7,9.8c-4.4,0.5-7.4-2.1-8.7-7.8c-0.3-1.3-0.3-2.7-0.6-3.9
					c-1.4-4.8-2-9.9-4.3-14.2c-8-14.7-19.3-26.1-34.8-33.2c-6-2.7-11.9-6-17.4-9.7c-12.3-8.3-21.4-19.9-30.8-31.2
					c-5.3-6.4-11.1-12.4-17.3-17.9c-1.9-1.7-6.4-2.3-8.6-1.2c-1.7,0.9-2.7,5.3-2.3,7.9c1.1,6.4,2.6,12.8,5.1,18.7
					c7,16.7,14.6,33.2,21.9,49.8c6.3,14.1,10.7,29.2,20.5,41.5c10.6,13.3,21.1,26.7,32.7,39.1c10.1,10.8,13.5,23,11.7,37.1
					c-0.4,3.2,0.7,4.1,3.5,4.6c25.8,4.3,51.6,5.8,77.6,1.3c1.3-0.2,3.3-2.4,3.4-3.7c0.4-10,4.1-18.7,10.1-26.6
					c6.6-8.8,13.3-17.6,19-26.9c9.9-16,10.8-34,11.3-52.3c-2-19.9-4-39.7-5.9-59.6c-0.9-9.1-3-18.4-1.9-27.3
					c4.5-35.5,10.1-70.9,15.2-106.3C343.3,98.4,344.1,91.1,344.7,83.8z M308.1,460.9c2.7-0.8,3.6-2.3,3.5-5.1
					c-0.3-7.5-0.2-15-0.5-22.5c-0.2-4.2-0.8-8.5-1.3-13.1c-2.1,0.3-3.6,0.5-5,0.8c-8.4,1.5-16.7,3.4-25.1,4.4
					c-27.1,3.5-53.8,0.5-80.3-5.5c-3.4-0.8-5.1-0.2-5.2,3.5c-0.2,10.8-0.7,21.6-0.6,32.4c0,1.5,2,3.8,3.6,4.4
					C234.1,473.7,271.1,472.5,308.1,460.9z"/>
				<path class="st0" d="M339.2,77.1c3.6,0.8,5.8,3,5.5,6.7c-0.6,7.3-1.4,14.6-2.4,21.8c-5.1,35.4-10.7,70.8-15.2,106.3
					c-1.1,8.9,1,18.2,1.9,27.3c1.9,19.9,3.9,39.8,5.9,59.6c-0.5,18.3-1.4,36.3-11.3,52.3c-5.8,9.3-12.5,18.1-19,26.9
					c-6,8-9.6,16.6-10.1,26.6c-0.1,1.3-2,3.5-3.4,3.7c-25.9,4.5-51.8,3-77.6-1.3c-2.8-0.5-3.9-1.4-3.5-4.6
					c1.8-14.1-1.6-26.2-11.7-37.1c-11.6-12.4-22.1-25.8-32.7-39.1c-9.8-12.3-14.2-27.4-20.5-41.5c-7.4-16.6-14.9-33-21.9-49.8
					c-2.5-5.9-4-12.4-5.1-18.7c-0.4-2.5,0.6-7,2.3-7.9c2.2-1.1,6.7-0.5,8.6,1.2c6.2,5.5,12,11.5,17.3,17.9
					c9.4,11.3,18.5,22.9,30.8,31.2c5.5,3.7,11.4,6.9,17.4,9.7c15.5,7.1,26.8,18.4,34.8,33.2c2.3,4.3,3,9.4,4.3,14.2
					c0.4,1.3,0.3,2.6,0.6,3.9c1.3,5.6,4.2,8.3,8.7,7.8c4.5-0.5,7.3-4.2,7-9.8c-0.9-16.5-8.8-29.8-19.4-41.7
					c-8.4-9.5-18.6-16.8-30.3-21.4c-6.2-2.4-8.8-6.1-9.5-12.8c-2.3-21.8-5.1-43.6-8-65.4c-3.7-28.2-7.7-56.4-11.5-84.6
					c-0.4-2.8-0.6-5.7-0.5-8.5c0.2-5.9,5.3-11,11.1-10.3c2.1,0.3,5.2,2.8,5.7,4.9c3.1,11.2,5.7,22.5,8.1,33.9
					c6.5,31.1,12.9,62.2,19.3,93.3c0.3,1.3,0.6,2.6,1.1,3.8c1.5,4,3.9,6.6,8.7,5.7c4.3-0.8,6.9-3.9,6.1-8.8
					c-1.9-11.7-4.3-23.2-6.5-34.8C217,133.8,209.9,96.7,203,59.6c-0.6-3.2-0.6-6.7-0.2-9.9c0.7-5.4,4-8.5,8.1-8.7
					c4.7-0.2,8.1,2.4,9.4,7.9c1.9,7.4,3.5,14.9,5.2,22.4c8.3,37.3,16.6,74.7,25,112c0.6,2.7,1.5,5.5,2.8,8c3,5.6,9,5.7,12.1,0.1
					c1.5-2.7,2.3-5.9,3.1-8.9c9.7-40.9,19.3-81.9,29-122.9c0.8-3.5,2-7.5,4.3-9.9c2.1-2.1,6-3.1,9.2-3.3c3.8-0.2,5.4,3.4,5.4,6.6
					c0.1,5.1-0.2,10.3-1.2,15.3c-8.6,39.2-17.4,78.3-26.1,117.4c-0.6,2.8-1.2,5.5-1.5,8.3c-0.5,4.8,1.8,8.4,5.8,9.3
					c4.1,0.9,7.7-1,9-5.9c2.9-10.8,5.4-21.6,8-32.5c6.1-25.6,12.1-51.2,18.2-76.7c0.6-2.6,1.6-5.1,2.7-7.5
					C333,77.7,335.6,76.3,339.2,77.1z"/>
				<path class="st0" d="M311.6,455.8c0.1,2.8-0.9,4.2-3.5,5.1c-37,11.6-73.9,12.8-110.8-0.6c-1.6-0.6-3.6-2.9-3.6-4.4
					c-0.1-10.8,0.4-21.6,0.6-32.4c0.1-3.7,1.7-4.3,5.2-3.5c26.5,6,53.2,9,80.3,5.5c8.4-1.1,16.7-2.9,25.1-4.4c1.4-0.2,2.9-0.5,5-0.8
					c0.5,4.6,1.1,8.9,1.3,13.1C311.4,440.8,311.3,448.3,311.6,455.8z"/>
			</g>
			<g>
				<path class="st2" d="M174.2,234.4c-1.3-10-2.6-19.9-3.9-29.9c-3.2-24.6-6.5-49.2-9.7-73.8c-1.8-13.5-3.1-27.1-5.4-40.6
					c-2.6-14.9,8.5-34.2,29.3-33.7c0.5,0,0.9-0.2,1.4-0.4c0.9-4.1,1.5-8.2,2.6-12.1c3.7-12.5,11.4-18.6,22.8-18.5
					c10.9,0.1,21,7.8,24,19.2c3.4,13.4,6.1,26.9,9.1,40.4c4.5,20.1,9,40.2,13.5,60.4c0.4,1.6,0.9,3.1,2.3,4.6
					c0.6-2.3,1.3-4.6,1.8-6.9c6.6-28,12.9-56.1,19.8-84c1.6-6.5,4.4-13,7.9-18.6c4.5-7.1,11.9-10.6,20.5-10.4
					c12.9,0.3,20.7,8.2,22.3,22.3c0.3,2.8,0.5,5.6,0.7,8.5c3.4,0.3,6.4,0.2,9.2,0.8c11,2.2,18.4,11.1,17.9,23.2
					c-0.4,10.1-1.9,20.2-3.3,30.2c-4.8,32.9-10.3,65.8-14.4,98.8c-1.2,9.5,1.3,19.5,2.4,29.2c2.6,22.8,5.9,45.6,4.6,68.7
					c-1.4,24.3-9.3,46.1-24.9,65.1c-5,6.1-9.1,13-13.4,19.7c-0.9,1.3-1,3.1-1.5,4.9c1.2,0.4,1.9,0.8,2.6,0.8
					c8.3,0,10.5,1.4,11.9,9.4c3,17.3,4,34.7,2.5,52.2c-0.4,5-2.8,8-7.4,9.5c-25.6,8.7-51.7,13.5-79,11.7c-18.6-1.2-36.5-5.4-54-11.6
					c-4.8-1.7-7.3-4.7-8.1-9.6c-3-18-2.4-35.8,2.6-53.4c2.1-7.5,2.6-7.7,14-9.2c0.6-8.9-0.4-17-7.1-24.2
					c-9.7-10.3-19.2-20.9-27.6-32.2c-8-10.8-15.7-22.1-21.3-34.2c-11.5-24.7-21.7-50-31.8-75.3c-2.8-7-4.3-14.8-4.4-22.3
					c-0.2-16.2,17-26.5,31.1-18.4c6.6,3.8,12.4,9.5,17.7,15.1c6.8,7.1,12.7,15,18.9,22.6c0.8,1,1,2.4,1.5,3.6
					C172.7,235.4,173.4,234.9,174.2,234.4z"/>
				<path class="st2" d="M334.9,298.8c-2-19.9-4-39.7-5.9-59.6c-0.9-9.1-3-18.4-1.9-27.3c4.5-35.5,10.1-70.9,15.2-106.3
					c1-7.2,1.8-14.5,2.4-21.8c0.3-3.6-1.9-5.8-5.5-6.7c-3.7-0.8-6.3,0.5-7.8,3.7c-1.1,2.4-2.1,4.9-2.7,7.5
					c-6.1,25.6-12.1,51.1-18.2,76.7c-2.6,10.8-5.1,21.7-8,32.5c-1.3,4.9-5,6.8-9,5.9c-3.9-0.9-6.3-4.4-5.8-9.3
					c0.3-2.8,0.9-5.6,1.5-8.3c8.7-39.1,17.5-78.2,26.1-117.4c1.1-5,1.3-10.2,1.2-15.3c0-3.2-1.6-6.8-5.4-6.6
					c-3.2,0.2-7.1,1.2-9.2,3.3c-2.4,2.4-3.5,6.4-4.3,9.9c-9.8,40.9-19.3,81.9-29,122.9c-0.7,3.1-1.5,6.2-3.1,8.9
					c-3.1,5.6-9.1,5.4-12.1-0.1c-1.3-2.5-2.2-5.2-2.8-8c-8.4-37.3-16.7-74.7-25-112c-1.7-7.5-3.3-14.9-5.2-22.4
					c-1.4-5.5-4.7-8.1-9.4-7.9c-4.2,0.2-7.4,3.3-8.1,8.7c-0.4,3.2-0.4,6.7,0.2,9.9c6.9,37.1,14.1,74.2,21.1,111.3
					c2.2,11.6,4.6,23.2,6.5,34.8c0.8,4.9-1.8,8-6.1,8.8c-4.7,0.9-7.2-1.7-8.7-5.7c-0.5-1.2-0.8-2.5-1.1-3.8
					c-6.4-31.1-12.8-62.2-19.3-93.3c-2.4-11.4-5-22.7-8.1-33.9c-0.6-2.1-3.6-4.6-5.7-4.9c-5.8-0.7-10.9,4.4-11.1,10.3
					c-0.1,2.8,0.1,5.7,0.5,8.5c3.8,28.2,7.8,56.4,11.5,84.6c2.9,21.8,5.7,43.6,8,65.4c0.7,6.7,3.4,10.4,9.5,12.8
					c11.8,4.7,21.9,11.9,30.3,21.4c10.6,12,18.4,25.3,19.4,41.7c0.3,5.6-2.4,9.3-7,9.8c-4.4,0.5-7.4-2.1-8.7-7.8
					c-0.3-1.3-0.3-2.7-0.6-3.9c-1.4-4.8-2-9.9-4.3-14.2c-8-14.7-19.3-26.1-34.8-33.2c-6-2.7-11.9-6-17.4-9.7
					c-12.3-8.3-21.4-19.9-30.8-31.2c-5.3-6.4-11.1-12.4-17.3-17.9c-1.9-1.7-6.4-2.3-8.6-1.2c-1.7,0.9-2.7,5.3-2.3,7.9
					c1.1,6.4,2.6,12.8,5.1,18.7c7,16.7,14.6,33.2,21.9,49.8c6.3,14.1,10.7,29.2,20.5,41.5c10.6,13.3,21.1,26.7,32.7,39.1
					c10.1,10.8,13.5,23,11.7,37.1c-0.4,3.2,0.7,4.1,3.5,4.6c25.8,4.3,51.6,5.8,77.6,1.3c1.3-0.2,3.3-2.4,3.4-3.7
					c0.4-10,4.1-18.7,10.1-26.6c6.6-8.8,13.3-17.6,19-26.9C333.5,335.1,334.4,317.1,334.9,298.8z"/>
				<path class="st2" d="M309.9,420.2c-2.1,0.3-3.6,0.5-5,0.8c-8.4,1.5-16.7,3.4-25.1,4.4c-27.1,3.5-53.8,0.5-80.3-5.5
					c-3.4-0.8-5.1-0.2-5.2,3.5c-0.2,10.8-0.7,21.6-0.6,32.4c0,1.5,2,3.8,3.6,4.4c36.8,13.5,73.8,12.3,110.8,0.6
					c2.7-0.8,3.6-2.3,3.5-5.1c-0.3-7.5-0.2-15-0.5-22.5C311,429.1,310.3,424.8,309.9,420.2z"/>
			</g>
		</g>
		<g id="XMLID_00000145043152227519455240000014196719552574490022_">
			<g>
				<path d="M342.8,62.7c11,2.2,18.4,11.1,17.9,23.2c-0.4,10.1-1.9,20.2-3.3,30.2c-4.8,32.9-10.3,65.8-14.4,98.8
					c-1.2,9.5,1.3,19.5,2.4,29.2c2.6,22.8,5.9,45.6,4.6,68.7c-1.4,24.3-9.3,46.1-24.9,65.1c-5,6.1-9.1,13-13.4,19.7
					c-0.8,1.3-1,3.1-1.5,4.9c1.2,0.3,1.9,0.8,2.6,0.8c8.3,0,10.5,1.4,11.9,9.4c3,17.3,4,34.7,2.5,52.2c-0.4,4.9-2.8,8-7.4,9.5
					c-25.6,8.7-51.7,13.5-79,11.7c-18.6-1.2-36.4-5.4-53.9-11.6c-4.8-1.7-7.3-4.7-8.1-9.6c-3-18-2.4-35.8,2.6-53.4
					c2.1-7.5,2.6-7.7,14-9.2c0.6-9-0.4-17-7.2-24.2c-9.7-10.3-19.2-20.9-27.6-32.2c-8-10.8-15.7-22.1-21.3-34.2
					c-11.5-24.7-21.7-50-31.8-75.3c-2.8-6.9-4.3-14.8-4.4-22.3c-0.2-16.2,17-26.5,31.2-18.4c6.6,3.8,12.4,9.5,17.7,15.1
					c6.8,7.1,12.7,15,18.9,22.6c0.8,1,1,2.4,1.5,3.6c0.7-0.5,1.5-1.1,2.2-1.6c-1.3-10-2.6-19.9-3.9-29.9
					c-3.2-24.6-6.5-49.2-9.7-73.8c-1.8-13.5-3.1-27.2-5.4-40.6c-2.6-14.9,8.5-34.2,29.3-33.7c0.5,0,0.9-0.2,1.4-0.4
					c0.9-4.1,1.5-8.2,2.6-12.1c3.7-12.5,11.3-18.6,22.8-18.5c10.9,0.1,21,7.8,24,19.2c3.4,13.4,6.1,26.9,9.2,40.4
					c4.5,20.1,9,40.2,13.5,60.4c0.4,1.6,0.9,3.1,2.3,4.6c0.6-2.3,1.3-4.6,1.8-6.9c6.5-28,12.9-56.1,19.8-84c1.6-6.5,4.3-13,7.9-18.6
					c4.5-7.1,11.9-10.6,20.5-10.4c12.8,0.3,20.7,8.2,22.3,22.3c0.3,2.8,0.5,5.6,0.7,8.5C336.9,62.2,339.9,62.1,342.8,62.7z
					 M344.9,84.8c0.3-3.6-1.9-5.8-5.5-6.7c-3.7-0.8-6.3,0.5-7.8,3.7c-1.1,2.4-2.1,4.9-2.7,7.5c-6.1,25.6-12.1,51.1-18.2,76.7
					c-2.6,10.8-5.1,21.7-8,32.5c-1.3,4.9-4.9,6.8-9,5.9c-4-0.9-6.3-4.4-5.8-9.3c0.3-2.8,0.9-5.6,1.5-8.3
					c8.7-39.1,17.5-78.2,26.1-117.4c1.1-5,1.3-10.2,1.2-15.3c0-3.2-1.6-6.8-5.4-6.6c-3.2,0.2-7.1,1.2-9.2,3.3
					c-2.4,2.4-3.5,6.4-4.3,9.9c-9.8,40.9-19.3,81.9-29,122.9c-0.7,3.1-1.5,6.2-3,8.9c-3.1,5.5-9.1,5.4-12.1-0.1
					c-1.3-2.4-2.2-5.2-2.8-8c-8.4-37.3-16.7-74.7-25-112c-1.7-7.5-3.3-14.9-5.2-22.4c-1.4-5.5-4.7-8.1-9.4-7.9
					c-4.2,0.2-7.4,3.3-8.1,8.7c-0.4,3.2-0.4,6.7,0.2,9.9c6.9,37.1,14.1,74.2,21.1,111.3c2.2,11.6,4.6,23.2,6.5,34.8
					c0.8,4.9-1.8,8-6.1,8.8c-4.7,0.9-7.2-1.7-8.6-5.7c-0.5-1.2-0.8-2.5-1.1-3.8c-6.4-31.1-12.8-62.2-19.3-93.3
					c-2.4-11.4-5-22.7-8.1-33.9c-0.6-2.1-3.6-4.6-5.7-4.9c-5.8-0.7-10.9,4.4-11.1,10.3c-0.1,2.8,0.1,5.7,0.5,8.5
					c3.8,28.2,7.8,56.4,11.5,84.6c2.9,21.8,5.7,43.6,8,65.4c0.7,6.7,3.4,10.4,9.5,12.8c11.8,4.6,21.9,11.9,30.4,21.4
					c10.6,12,18.4,25.3,19.4,41.7c0.3,5.7-2.4,9.3-7,9.9c-4.4,0.5-7.4-2.1-8.7-7.8c-0.3-1.3-0.3-2.7-0.6-3.9
					c-1.3-4.8-2-9.9-4.3-14.2c-8-14.7-19.3-26.1-34.8-33.2c-6-2.7-11.9-6-17.4-9.7c-12.3-8.3-21.4-19.9-30.8-31.2
					c-5.3-6.4-11.1-12.4-17.3-17.9c-1.9-1.7-6.4-2.3-8.6-1.2c-1.7,0.9-2.7,5.3-2.3,7.9c1.1,6.3,2.6,12.8,5.1,18.7
					c7,16.7,14.6,33.2,21.9,49.8c6.3,14.1,10.7,29.2,20.5,41.5c10.6,13.3,21.1,26.7,32.7,39.1c10.1,10.8,13.5,23,11.7,37.1
					c-0.4,3.2,0.7,4.1,3.5,4.6c25.8,4.3,51.6,5.8,77.6,1.3c1.3-0.2,3.3-2.4,3.4-3.7c0.4-10,4.1-18.7,10.1-26.6
					c6.6-8.8,13.3-17.6,19-26.9c9.9-16,10.8-34,11.3-52.3c-2-19.9-4-39.7-5.9-59.6c-0.9-9.1-3-18.4-1.9-27.3
					c4.5-35.5,10.1-70.8,15.2-106.3C343.6,99.3,344.4,92,344.9,84.8z M308.3,461.8c2.7-0.8,3.6-2.3,3.5-5.1
					c-0.3-7.5-0.2-15-0.5-22.5c-0.2-4.2-0.8-8.5-1.3-13.1c-2.1,0.3-3.6,0.5-5,0.8c-8.3,1.5-16.7,3.4-25.1,4.4
					c-27.1,3.5-53.8,0.5-80.3-5.5c-3.4-0.8-5.1-0.2-5.2,3.5c-0.2,10.8-0.7,21.6-0.6,32.4c0,1.5,2.1,3.8,3.6,4.4
					C234.4,474.7,271.3,473.5,308.3,461.8z"/>
				<path class="st3" d="M339.5,78.1c3.6,0.8,5.8,3,5.5,6.7c-0.6,7.3-1.4,14.6-2.4,21.8c-5.1,35.4-10.7,70.8-15.2,106.3
					c-1.1,8.9,1,18.2,1.9,27.3c1.9,19.9,3.9,39.8,5.9,59.6c-0.5,18.3-1.4,36.3-11.3,52.3c-5.8,9.3-12.5,18.1-19,26.9
					c-6,8-9.6,16.6-10.1,26.6c-0.1,1.3-2,3.5-3.4,3.7c-25.9,4.5-51.8,3-77.6-1.3c-2.8-0.5-3.9-1.4-3.5-4.6
					c1.8-14.1-1.6-26.2-11.7-37.1c-11.6-12.4-22.1-25.8-32.7-39.1c-9.8-12.3-14.2-27.4-20.5-41.5c-7.4-16.6-14.9-33-21.9-49.8
					c-2.5-5.9-4-12.4-5.1-18.7c-0.4-2.5,0.6-7,2.3-7.9c2.2-1.1,6.7-0.5,8.6,1.2c6.2,5.5,12,11.5,17.3,17.9
					c9.4,11.3,18.5,22.9,30.8,31.2c5.5,3.7,11.4,7,17.4,9.7c15.5,7.1,26.8,18.5,34.8,33.2c2.3,4.3,3,9.4,4.3,14.2
					c0.4,1.3,0.3,2.6,0.6,3.9c1.3,5.6,4.2,8.3,8.7,7.8c4.5-0.5,7.3-4.2,7-9.9c-0.9-16.4-8.8-29.8-19.4-41.7
					c-8.4-9.5-18.6-16.8-30.4-21.4c-6.1-2.4-8.8-6.1-9.5-12.8c-2.3-21.9-5.1-43.6-8-65.4c-3.7-28.2-7.7-56.4-11.5-84.6
					c-0.4-2.8-0.6-5.7-0.5-8.5c0.2-5.9,5.3-11,11.1-10.3c2.2,0.3,5.2,2.8,5.7,4.9c3.1,11.2,5.7,22.5,8.1,33.9
					c6.5,31.1,12.9,62.2,19.3,93.3c0.3,1.3,0.6,2.6,1.1,3.8c1.5,4,3.9,6.6,8.6,5.7c4.3-0.8,6.9-3.9,6.1-8.8
					c-1.9-11.6-4.3-23.2-6.5-34.8c-7-37.1-14.2-74.2-21.1-111.3c-0.6-3.2-0.6-6.7-0.2-9.9c0.7-5.4,4-8.5,8.1-8.7
					c4.7-0.2,8.1,2.4,9.4,7.9c1.9,7.4,3.5,14.9,5.2,22.4c8.3,37.3,16.6,74.7,25,112c0.6,2.7,1.5,5.5,2.8,8c3,5.6,9,5.7,12.1,0.1
					c1.5-2.7,2.3-5.9,3-8.9c9.7-40.9,19.3-81.9,29-122.9c0.8-3.5,2-7.5,4.3-9.9c2.1-2.1,6-3.1,9.2-3.3c3.8-0.2,5.4,3.4,5.4,6.6
					c0.1,5.1-0.2,10.3-1.2,15.3c-8.6,39.2-17.4,78.3-26.1,117.4c-0.6,2.8-1.2,5.5-1.5,8.3c-0.5,4.8,1.8,8.3,5.8,9.3
					c4.1,0.9,7.7-1,9-5.9c2.9-10.8,5.4-21.6,8-32.5c6.1-25.6,12.1-51.2,18.2-76.7c0.6-2.6,1.6-5.1,2.7-7.5
					C333.2,78.6,335.8,77.3,339.5,78.1z"/>
				<path class="st3" d="M311.9,456.8c0.1,2.8-0.9,4.2-3.5,5.1c-37,11.6-73.9,12.8-110.8-0.6c-1.6-0.6-3.6-2.9-3.6-4.4
					c-0.1-10.8,0.4-21.6,0.6-32.4c0.1-3.7,1.7-4.3,5.2-3.5c26.5,6,53.2,9,80.3,5.5c8.4-1.1,16.7-2.9,25.1-4.4c1.4-0.2,2.9-0.5,5-0.8
					c0.5,4.6,1.1,8.9,1.3,13.1C311.7,441.8,311.6,449.3,311.9,456.8z"/>
			</g>
			<g>
			</g>
		</g>
	</g>
	<circle cx="216.8" cy="445.8" r="9.3"/>
</g>
</svg>
